<?xml version="1.0" encoding="UTF-8" standalone="no"?>
<svg width="100px" height="80px" viewBox="0 0 100 80" version="1.1" xmlns="http://www.w3.org/2000/svg" xmlns:xlink="http://www.w3.org/1999/xlink" xmlns:sketch="http://www.bohemiancoding.com/sketch/ns">
    <!-- Generator: Sketch 3.2.2 (9983) - http://www.bohemiancoding.com/sketch -->
    <title>ciutat-vella</title>
    <desc>Created with Sketch.</desc>
    <defs></defs>
    <g id="Page-1" stroke="none" stroke-width="1" fill="none" fill-rule="evenodd" sketch:type="MSPage">
        <g id="background" sketch:type="MSArtboardGroup" transform="translate(-677.000000, -415.000000)" fill="#FFFFFF">
            <g id="districtes" sketch:type="MSLayerGroup" transform="translate(149.000000, 192.000000)">
                <path d="M605.86354,227.961599 C606.695852,228.841634 607.528167,229.721666 608.360478,230.601701 C609.444304,230.602278 610.533175,230.569883 611.613858,230.590995 C612.924373,231.017722 614.230856,231.456846 615.536353,231.899005 C616.621802,231.818087 617.710802,231.866467 618.798116,231.853479 C618.764322,234.182412 618.778287,236.51159 618.775618,238.840683 C620.35043,238.851481 621.92508,238.873785 623.49955,238.908956 C623.401658,243.725683 623.346251,248.543515 623.36458,253.36131 C624.902018,253.37611 626.438618,253.43641 627.976038,253.452348 C627.874298,253.676576 627.674174,253.898679 627.633767,254.12423 C627.769124,254.446709 628.041651,254.734512 627.980087,255.106762 C628.015143,257.339355 627.991787,259.572339 627.998533,261.805119 C627.631116,261.729254 627.263699,261.653389 626.896285,261.577523 C626.881285,261.069229 626.866286,260.560934 626.851286,260.052639 C626.171199,259.930189 625.491651,259.771898 624.811225,259.671859 C624.07242,259.808289 623.317284,259.878267 622.588998,260.057491 C619.55117,261.104551 616.514003,262.153545 613.489313,263.238983 C613.385494,263.050185 613.377759,262.639013 613.093666,262.867447 C611.854242,263.315959 610.664327,263.891626 609.43719,264.369131 C608.496354,264.647854 607.601491,265.0576 606.706052,265.455465 C604.808136,266.479414 602.888303,267.461497 600.972336,268.449367 C599.429701,269.472335 597.865929,270.467725 596.336512,271.507932 C596.191063,271.678086 595.91535,271.830439 595.851207,272.0117 C596.333866,272.793091 596.816529,273.57448 597.299189,274.355869 C597.644294,274.242159 597.989402,274.128446 598.334507,274.014733 C598.530324,274.17632 598.726144,274.337904 598.92196,274.499488 C590.805825,277.923961 582.689693,281.348432 574.573558,284.772906 C580.092934,281.97839 585.61231,279.183875 591.131687,276.38936 C590.943455,275.70054 590.755227,275.011719 590.566998,274.322901 C589.487239,274.838788 588.407483,275.354675 587.327725,275.870563 C586.439493,275.823308 585.543707,275.811078 584.660167,275.742068 C583.999509,275.490414 583.362123,275.1648 582.686295,274.961356 C582.159632,274.851345 581.630087,274.682712 581.10519,274.60861 C575.29865,276.614847 569.492113,278.621082 563.685576,280.627317 C563.306527,280.965719 562.775842,281.012461 562.321112,281.205295 C560.606115,281.794872 558.883697,282.367389 557.173328,282.967602 C556.767808,283.174414 556.386744,283.430647 556.000071,283.664249 C555.312516,283.832718 554.69404,284.20251 554.028323,284.439623 C553.595629,284.712605 553.216305,285.079122 552.781658,285.35763 C547.653894,289.049116 542.506641,292.713103 537.393688,296.425513 C534.844342,298.330236 532.255969,300.180999 529.661181,302.021628 C529.200269,302.347692 528.739228,302.673567 528.278574,303 C528.230471,302.808783 527.858624,302.547903 528.058655,302.410083 C528.947234,301.788558 529.835813,301.167033 530.724392,300.545507 C530.786424,299.429106 530.848456,298.312702 530.910485,297.196301 C530.769187,297.047484 530.696544,296.671941 531.000462,296.718347 C531.682811,296.263155 532.365157,295.807963 533.047502,295.352771 C533.331085,295.556757 533.188278,295.697369 532.930763,295.820929 C532.714734,295.968336 532.498701,296.115745 532.282672,296.263155 C532.432638,296.467991 532.582604,296.67283 532.73257,296.87767 C532.500015,297.016507 532.293677,297.159592 532.574167,297.381604 C532.710115,297.559572 532.965564,296.967501 533.072025,297.35286 C533.311293,297.680001 533.550561,298.007141 533.789828,298.334281 C534.614894,297.643549 535.487109,297.015575 536.354318,296.380934 C536.069832,295.624818 535.785349,294.868701 535.500864,294.112585 C537.652118,292.603183 539.80337,291.093778 541.954625,289.584374 C541.790112,289.2424 541.625602,288.900423 541.461092,288.55845 C543.767487,286.939686 546.073878,285.320923 548.380273,283.70216 C548.331204,283.484302 548.158887,283.224524 548.185281,283.032333 C548.421717,282.875085 548.658154,282.717835 548.894591,282.560587 C549.092366,282.660842 549.246795,283.009686 549.484941,282.878411 C552.053047,281.958362 554.633298,281.062559 557.193825,280.127367 C557.354061,280.06317 557.610671,279.742985 557.715443,279.844441 C557.75232,280.179896 557.937975,280.195437 558.200815,280.045002 C565.898796,277.35956 573.590461,274.655507 581.299094,272.00143 C582.626293,272.767667 583.953493,273.533901 585.280693,274.300138 C586.466181,274.029724 587.668816,273.798201 588.843594,273.503497 C589.590524,272.957288 590.337454,272.411079 591.084381,271.86487 C590.933488,271.738111 590.82117,271.269221 590.623286,271.559184 C590.441357,271.446442 590.868877,271.189435 590.938854,271.369493 C591.081502,271.214962 591.189373,271.694115 591.340013,271.682013 C592.259573,270.976726 593.179135,270.271437 594.098697,269.566147 C593.828758,269.201996 593.558816,268.837846 593.288877,268.473692 C592.614029,268.981987 591.939182,269.490282 591.264335,269.998576 C591.154865,269.644692 590.957837,269.878918 590.772587,270.034045 C590.635608,270.190995 590.318972,270.291225 590.293961,270.487413 C590.333366,270.675247 590.701212,270.932843 590.496082,271.06873 C590.26841,271.418208 590.226578,270.693658 590.025228,270.911509 C589.840736,271.020379 589.633204,271.360562 589.49259,271.028955 C589.172664,270.831742 589.533072,270.70576 589.698749,270.559388 C590.640518,269.841392 591.582284,269.123397 592.524053,268.405404 C592.369708,268.298543 592.261666,267.841649 592.072439,267.998508 C591.045744,268.794171 590.019049,269.589832 588.992354,270.385496 C588.686579,270.172235 589.02927,270.048823 589.206131,269.902434 C589.54476,269.781595 589.359132,269.57786 589.195084,269.37754 C589.093953,269.19278 588.767537,268.972813 589.109997,268.857373 C590.053058,268.145316 590.99612,267.433256 591.939182,266.721197 C591.861227,266.535108 591.519844,266.311266 591.617934,266.15041 C591.85249,265.968934 592.087046,265.787455 592.321602,265.605979 C593.086429,266.630161 593.851256,267.654343 594.616083,268.678525 C594.848527,268.504032 595.080975,268.329539 595.313419,268.155045 C595.035982,267.798481 594.758545,267.441917 594.48111,267.085353 C594.631298,266.935216 595.02582,266.811671 594.714071,266.611259 C594.553937,266.420309 594.393803,266.229358 594.233669,266.038408 C594.743554,265.636325 595.253436,265.234242 595.763317,264.832156 C596.220714,265.423905 596.678114,266.015652 597.13551,266.607399 C598.228901,265.771123 599.308546,264.910352 600.410521,264.089376 C600.631484,263.999576 600.967126,263.950685 600.692556,263.684122 C600.592439,263.41869 600.288415,263.769616 600.093145,263.791808 C599.789613,263.926166 599.486082,264.06052 599.18255,264.194878 C599.067145,263.963895 599.533735,263.978998 599.669796,263.854342 C599.919787,263.747846 600.16978,263.641349 600.419771,263.534852 C600.254808,263.125179 600.089842,262.71551 599.924877,262.305837 C599.542466,262.184452 599.160052,262.063065 598.777642,261.94168 C597.750374,262.753442 596.723106,263.565204 595.695839,264.376964 C595.494302,264.10298 595.226625,263.853001 595.065981,263.56417 C595.0298,263.130821 594.877495,262.711106 594.796042,262.283074 C595.07392,262.126816 594.983347,262.608464 595.078857,262.767932 C595.161662,262.929295 595.110524,263.455072 595.357164,263.170692 C595.521503,263.015848 595.889199,262.925908 595.687234,262.654153 C595.600121,262.401485 595.513006,262.14882 595.425894,261.896155 C595.720034,261.686748 595.679177,262.130266 595.772168,262.31291 C595.839362,262.54372 595.866962,262.892376 596.116997,262.578946 C596.344157,262.443818 596.55593,262.303952 596.353254,262.036542 C596.269084,261.807671 596.184911,261.578798 596.100741,261.349927 C596.341902,261.174132 596.337673,261.67291 596.461596,261.819397 C596.54148,262.090843 596.636213,262.300702 596.85558,261.993575 C597.115457,261.857746 597.177762,261.679653 596.980553,261.446049 C596.912817,261.245251 596.701916,261.005993 596.717645,260.827619 C596.920708,260.660757 596.965764,261.150174 597.099905,261.269571 C597.203448,261.527722 597.319711,261.725849 597.539369,261.436074 C597.8115,261.307789 597.87697,261.138964 597.653439,260.91345 C597.587715,260.715468 597.275962,260.46622 597.378128,260.303225 C597.57175,260.140761 597.634087,260.623198 597.771966,260.734568 C597.89151,260.984244 598.014836,261.210793 598.226157,260.899138 C598.409469,260.748591 598.688301,260.604978 598.373204,260.418234 C598.289886,260.23711 597.857144,260.04599 598.09921,259.87417 C598.267184,259.929834 598.431097,260.216007 598.5975,260.360959 C598.799255,260.628691 599.179053,260.615411 599.463803,260.752151 C600.037396,260.943823 600.610992,261.135492 601.184586,261.327165 C601.213241,261.068352 601.58549,261.038491 601.605031,260.817149 C601.56262,260.526594 601.533554,260.266118 601.777663,260.621368 C601.930586,260.908145 602.158847,260.525368 602.35203,260.454352 C602.795195,260.153543 603.238359,259.852731 603.681524,259.551922 C603.149145,259.263636 602.616762,258.975351 602.084382,258.687063 C602.194397,258.440385 602.475932,258.814383 602.662766,258.845685 C603.047342,259.050752 603.431921,259.255819 603.8165,259.460886 C604.046368,259.28135 604.374611,259.190572 604.454399,258.875613 C604.496923,258.681364 604.79777,258.402832 604.670611,258.263944 C603.936008,257.873926 603.201405,257.483908 602.466805,257.093891 C602.522292,256.767491 602.829834,257.149891 603.013551,257.184079 C603.626124,257.502993 604.238696,257.821907 604.851269,258.14082 C605.031225,257.799426 605.211184,257.458032 605.391144,257.116638 C604.588822,256.691795 603.786501,256.266955 602.984179,255.842113 C603.039939,255.515242 603.34608,255.900329 603.529222,255.935664 C604.172354,256.276217 604.815487,256.616774 605.45862,256.95733 C605.623585,256.669039 605.788551,256.380747 605.953517,256.092456 C605.136201,255.652437 604.318886,255.212421 603.501574,254.772405 C603.540883,254.418424 603.855791,254.797659 604.045831,254.844687 C604.711716,255.199919 605.377605,255.555153 606.04349,255.910385 C606.125282,255.712453 606.354457,255.472545 606.347106,255.3 C605.518567,254.84343 604.690031,254.386861 603.861496,253.930294 C603.914353,253.64182 604.237862,254.037989 604.416529,254.067762 C605.093821,254.431615 605.771116,254.795471 606.448411,255.159325 C606.669047,254.978844 606.381586,254.731141 606.609789,254.547768 C606.664839,254.362059 606.242348,254.310749 606.110297,254.1777 C605.563146,253.875222 605.015998,253.572747 604.468846,253.270268 C604.556849,252.984441 604.855489,253.374774 605.044128,253.411997 C605.594699,253.713735 606.145269,254.015475 606.69584,254.317213 C606.609528,254.06659 606.585177,253.766813 606.459733,253.547238 C605.863588,253.212149 605.267443,252.877061 604.671298,252.54197 C604.733123,252.189193 605.011775,252.551472 605.19767,252.607858 C605.599585,252.836249 606.0015,253.06464 606.403415,253.293031 C606.330525,253.043504 606.328354,252.740036 606.211932,252.523714 C605.855853,252.332548 605.499773,252.141383 605.143694,251.950218 C605.16043,251.573343 605.463898,251.923819 605.652805,251.983683 C605.810923,252.032149 606.192071,252.351099 606.199992,252.217412 C606.105606,251.992933 606.118947,251.684294 605.848453,251.597389 C605.43967,251.353467 605.063078,251.049368 604.62632,250.857747 C603.381598,253.15647 602.136879,255.455193 600.892161,257.753916 C599.085069,258.216698 597.277981,258.679476 595.47089,259.142255 C595.214762,259.037391 595.168672,258.791845 595.127899,258.542737 C594.994786,257.961159 594.86167,257.379581 594.728557,256.798007 C594.918891,256.529264 595.065315,256.199183 595.283231,255.968965 C596.905429,255.547354 598.527627,255.125743 600.149826,254.704132 C600.699275,253.669915 601.250499,252.63672 601.827499,251.618546 C601.940676,251.406351 602.10901,251.202143 601.982927,250.955289 C601.848462,250.861465 601.539409,251.053601 601.338247,251.069017 C598.696558,251.749982 596.06414,252.469082 593.416336,253.124868 C592.213863,253.410905 591.008246,253.683097 589.802165,253.953056 C589.833844,254.168469 590.079239,254.500549 589.716654,254.500722 C589.434205,254.543747 589.727278,254.914707 589.715671,255.112057 C590.276883,257.411357 590.838095,259.710653 591.399307,262.009953 C591.649301,261.914138 591.869025,261.874178 591.883467,262.213044 C592.024621,262.444846 591.736848,262.632285 591.661874,262.841734 C591.594554,263.116883 591.317788,263.083551 591.099744,263.152081 C590.352289,263.33278 589.604834,263.513479 588.857382,263.694175 C588.645279,263.546196 588.36779,263.447756 588.195695,263.269466 C588.134425,263.039103 587.993436,262.761017 588.353181,262.782672 C588.674867,262.777397 588.384461,262.402322 588.393486,262.208152 C587.794665,259.760849 587.256248,257.297987 586.60789,254.863441 C586.660111,254.635496 586.795741,254.475046 586.654449,254.21122 C586.520196,253.62418 586.375824,253.039371 586.247975,252.45092 C586.967812,252.276429 587.687646,252.101942 588.407483,251.927455 C588.098604,251.332962 587.847708,250.700521 587.501658,250.130354 C585.860153,248.12553 584.244566,246.09825 582.575842,244.116875 C581.895287,243.422756 581.075023,242.876519 580.473629,242.103861 C580.236002,241.953138 580.294792,241.703344 580.32351,241.463597 C580.46916,240.557322 580.366214,239.634954 580.404546,238.720825 C580.490779,236.509211 580.494324,234.295794 580.536498,232.083087 C580.347772,231.317212 581.160054,231.05158 581.604508,230.603452 C584.697475,228.060209 587.809095,225.540299 590.904419,223 C591.4293,223.045519 591.954182,223.091038 592.479066,223.136558 C594.098697,225.200098 595.718331,227.263638 597.337961,229.327176 C600.204794,229.039852 602.964029,227.965444 605.86354,227.961599 L605.86354,227.961599 Z" id="ciutat-vella" sketch:type="MSShapeGroup"></path>
            </g>
        </g>
    </g>
</svg>