<?xml version="1.0" encoding="UTF-8" standalone="no"?>
<svg width="100px" height="63px" viewBox="0 0 100 63" version="1.1" xmlns="http://www.w3.org/2000/svg" xmlns:xlink="http://www.w3.org/1999/xlink" xmlns:sketch="http://www.bohemiancoding.com/sketch/ns">
    <!-- Generator: Sketch 3.2.2 (9983) - http://www.bohemiancoding.com/sketch -->
    <title>eixample</title>
    <desc>Created with Sketch.</desc>
    <defs></defs>
    <g id="Page-1" stroke="none" stroke-width="1" fill="none" fill-rule="evenodd" sketch:type="MSPage">
        <g id="background" sketch:type="MSArtboardGroup" transform="translate(-281.000000, -432.000000)" fill="#FFFFFF">
            <g id="districtes" sketch:type="MSLayerGroup" transform="translate(149.000000, 192.000000)">
                <path d="M132.309595,258.036868 C131.956239,261.181133 132.278333,264.42863 132.082235,267.557123 C132.300595,271.555917 131.382153,275.720073 132.877997,279.543468 C137.373106,284.214224 142.089418,288.667046 146.519634,293.365043 C149.705051,296.550888 152.963413,299.683682 156.01194,303 L156.06878,302.340464 L156.15404,301.738279 L156.15404,299.300865 L156.182461,298.039144 C156.31793,295.268616 156.246406,292.641466 156.352981,289.866636 C160.693674,286.293195 165.075103,282.762289 169.426217,279.199363 L171.415622,279.371416 L177.554359,287.171142 C180.787617,286.876263 184.987157,285.40569 188.325569,285.450614 L191.480197,288.776969 L195.544268,288.748293 L197.817874,289.493855 L200.546202,290.41147 L201.569325,290.354119 L204.667113,290.354119 L204.638693,293.164315 L207.679641,293.221666 L216.035144,293.336368 L217.711929,291.816568 L219.701334,289.723259 L220.269736,289.379153 L229.02312,280.518434 L229.847302,279.686846 L229.477841,279.34274 L228.96628,278.253072 L229.02312,278.224397 L228.823706,277.679563 L228.795759,277.593537 L227.687376,277.593537 L225.697497,275.213473 L226.550573,274.611288 L229.619468,276.188439 L229.960509,276.102412 L230.671011,275.614929 L231.126206,275.471552 L231.865128,275.35685 C231.939494,269.000933 231.863707,262.60965 231.978808,256.25899 C231.761394,253.214133 232.126119,249.907852 231.950388,246.853437 C225.925331,246.80421 219.900275,246.8066 213.875218,246.824761 L213.846798,249.921711 L213.789958,252.932635 L213.761538,256.058261 L210.72059,256.058261 L207.764902,256.029586 L204.809214,256.029586 L201.569325,256.00091 L201.597745,252.932635 C195.404536,252.897747 188.988704,253.071711 182.812073,252.90396 C174.265682,248.582089 165.714081,244.281725 157.148743,240 L156.779282,240.573509 L156.15404,240.602185 L155.557219,240.143377 C152.099443,241.56568 149.465375,243.770824 146.377534,245.792444 C141.320181,249.43853 136.954383,253.873669 132.309595,258.036868 L132.309595,258.036868 Z" id="eixample" sketch:type="MSShapeGroup"></path>
            </g>
        </g>
    </g>
</svg>