<?xml version="1.0" encoding="UTF-8" standalone="no"?>
<svg width="100px" height="115px" viewBox="0 0 100 115" version="1.1" xmlns="http://www.w3.org/2000/svg" xmlns:xlink="http://www.w3.org/1999/xlink" xmlns:sketch="http://www.bohemiancoding.com/sketch/ns">
    <!-- Generator: Sketch 3.2.2 (9983) - http://www.bohemiancoding.com/sketch -->
    <title>horta-guinardo</title>
    <desc>Created with Sketch.</desc>
    <defs></defs>
    <g id="Page-1" stroke="none" stroke-width="1" fill="none" fill-rule="evenodd" sketch:type="MSPage">
        <g id="background" sketch:type="MSArtboardGroup" transform="translate(-517.000000, -205.000000)" fill="#FFFFFF">
            <g id="districtes" sketch:type="MSLayerGroup" transform="translate(149.000000, 192.000000)">
                <path d="M372.306945,57.1716103 C372.148412,57.1084894 372.15932,56.6783295 372.06758,56.4704001 C371.489715,54.2309007 370.961209,51.977604 370.344636,49.7487613 C370.180269,49.2117317 369.923367,48.7118686 369.814086,48.1565186 C369.288283,46.2560775 368.762476,44.3556327 368.236673,42.4551916 C368.075492,42.3888825 368.096069,41.9375635 368,41.7253573 C368.145186,41.656544 368.508285,41.914253 368.747078,41.8614948 C369.188035,41.7129575 369.320141,41.2090162 369.453412,40.8103562 C369.569092,40.3405035 369.576644,39.8639067 369.626845,39.3881961 C369.846915,38.6678676 370.249073,38.0100974 370.541543,37.3235487 C370.74215,37.0792838 371.121588,37.0629971 371.286552,36.7651282 C371.819234,36.1259027 372.242752,35.3333262 373.036743,34.9852806 C374.144513,34.5639904 375.270926,34.1897182 376.36787,33.7399914 C376.639284,33.5610722 376.821774,33.2412645 376.724998,32.9125983 C377.323202,32.9499302 377.926673,32.7981937 378.526983,32.7600453 C378.971815,32.7862351 379.292763,32.4394213 379.697188,32.3110136 C380.060825,32.1480649 380.469931,31.935355 380.873015,32.0852051 C381.175089,31.7966729 381.65457,31.8895469 381.93999,31.5682425 C382.191779,31.3908789 382.623037,31.4694996 382.768461,31.1474856 C383.270456,31.0122086 383.695257,30.6667775 384.196901,30.5131582 C384.574654,30.5837403 384.951213,30.7714961 385.329728,30.7673995 C385.702544,30.6886538 386.074052,30.592029 386.412757,30.4280213 C388.851539,30.3001137 391.290318,30.1722024 393.729101,30.0442947 C393.657726,29.7346107 393.697074,29.5017786 394.058751,29.4926993 C394.994496,29.2791436 395.955069,29.1995631 396.888183,28.9686873 C397.676548,28.9063019 398.485569,28.9057834 399.26122,28.8053121 C399.648713,28.606234 399.833811,28.1810348 400.223274,27.9791546 C400.782451,27.6289614 401.433885,27.4413785 402.032287,27.1620873 C402.456795,27.0337862 402.745745,26.615129 403.219538,26.6236897 C403.507833,26.5678425 403.736035,26.3452664 404.038504,26.3068644 C404.408452,26.3423577 404.456115,26.0970338 404.494463,25.7721551 C404.661384,25.2056299 404.97908,24.6837838 405.298969,24.1924925 C405.666155,23.7466416 406.301744,23.7471417 406.756795,23.4247967 C407.48908,23.029711 408.22495,22.6272118 408.907744,22.1524977 C409.581722,21.6666194 410.16741,21.0596548 410.580666,20.3344944 C410.967166,19.6877819 411.5921,19.2609831 412.161665,18.7917519 C413.012874,18.8491619 414.053221,18.5900371 414.372074,17.6936063 C414.543778,17.1878742 414.581621,16.4985712 415.144685,16.2515594 C415.471208,16.0666168 415.770887,15.8129675 416.161514,15.8010457 C416.467761,15.7209871 416.795426,15.6771095 416.974595,15.3824546 C417.256476,14.9007684 417.778152,14.9438627 418.272884,14.8776198 C418.913682,14.9033278 419.510043,14.1739936 420.096556,14.3987908 C420.381331,14.625879 420.662993,14.8508196 421.021436,14.9492389 C421.405204,15.1171004 421.800739,15.2653583 422.105447,15.5649187 C422.533522,15.7505526 422.990719,15.7072708 423.438561,15.6356516 C423.857494,15.5530667 424.3702,15.6561305 424.66319,15.2704807 C424.956247,14.9602341 425.344523,14.7117403 425.566706,14.3514088 C426.276787,14.5843512 427.050303,14.9027725 427.761798,14.4911058 C428.059074,14.4740726 428.310266,14.3451941 428.566201,14.2132378 C428.918674,14.0809211 429.278367,14.0361977 429.62869,13.906764 C429.988235,13.8199245 430.314916,13.6364051 430.690145,13.5975065 C431.121124,13.5960393 431.228376,13.042278 431.637643,13 C432.05892,13.6603737 432.555322,14.2787122 432.846332,15.0133233 C433.052117,15.2192596 433.304063,15.3281556 433.596911,15.3049224 C433.897315,15.3243716 434.199082,15.3722354 434.494549,15.289121 C434.641269,15.622406 434.852747,15.9188554 435.043954,16.2268369 C435.328107,16.225377 435.611956,16.2074207 435.895987,16.1992497 C436.93954,17.7583599 437.962782,19.3511395 439.303779,20.6740602 C439.758815,21.1700144 439.575716,21.8432402 439.522072,22.4322853 C439.49028,22.7525968 439.772323,22.8739367 439.993155,23.0323807 C440.468321,23.3960144 441.106089,23.4314195 441.646796,23.6452253 C442.102803,24.0178059 442.606227,24.3179841 443.169701,24.4936857 C443.463582,24.9901914 443.491587,25.8229681 444.075854,26.2085443 C444.830723,26.4707838 444.775724,27.3905471 445.610597,27.3993543 C446.349768,27.725656 446.998978,28.3617963 447.322069,29.0973488 C447.351338,29.6296494 447.179238,30.2073059 447.440576,30.6963651 C447.481997,30.9880267 447.577979,31.325456 447.78765,31.524023 C448.037721,31.685714 448.040534,32.0622808 448.185559,32.3152609 C448.264706,32.7134833 448.755351,32.546828 449.04465,32.581641 C449.668108,32.5817955 450.380717,32.6735184 450.777256,33.2173327 C451.346224,33.872047 451.993076,34.4443567 452.661388,34.99397 C452.993983,35.1897827 453.011165,35.6105618 453.288289,35.8601329 C453.695384,36.2570206 454.315157,36.3308902 454.859472,36.3600696 C455.336587,36.3676559 455.758732,36.0689228 456.211937,35.9432731 C456.673027,35.7381605 457.214012,35.6721345 457.569588,35.2844512 C458.467811,34.756203 459.636206,35.0697188 460.413414,35.6748631 C460.788402,35.8602102 461.153416,36.0730194 461.584879,36.0661502 C462.059965,36.1111089 462.516854,36.3038841 462.946207,36.4962879 C463.343065,36.8363208 463.809968,37.1785563 463.915864,37.7259265 C464.048601,38.1007724 464.142751,38.5135349 464.281908,38.8698324 C464.823208,39.3523424 465.599335,39.2958112 466.264848,39.4666697 C466.836838,39.5710978 467.408832,39.6755258 467.980822,39.7799538 C468.068968,40.0578108 467.859253,41.2546405 467.227132,41.4744439 C466.910711,41.5580143 466.792362,41.9425866 466.437373,41.9027688 C465.265556,42.2867491 464.060581,42.5606125 462.855339,42.8112612 C462.250509,42.9245037 461.620143,42.908456 461.01739,42.8207523 C460.743131,42.722355 460.535324,42.531367 460.34409,42.3172928 C460.024039,42.1771691 459.934552,42.6237298 460.029086,42.8464897 C460.095799,43.141038 460.171372,43.4364063 459.993404,43.708284 C459.616076,44.330822 458.845418,44.4691217 458.247488,44.7992074 C457.855341,45.0813411 457.479416,44.6405649 457.132792,44.4796902 C456.664984,44.1768864 456.119904,43.9702882 455.784019,43.5032229 C455.537776,43.3326549 455.20273,43.5781369 455.293283,43.8406191 C455.841212,44.3498226 456.064549,45.098242 456.094932,45.8286757 C456.10941,46.1267027 456.120735,46.4258476 456.344413,46.64981 C456.640957,46.976053 456.625002,47.4141889 456.583811,47.8230829 C456.514509,48.3831949 455.931919,48.7208375 455.819075,49.2576024 C455.915173,49.5981206 455.897629,49.9436473 455.717021,50.2542029 C455.57456,50.6463027 455.175611,50.8916707 455.082128,51.3066139 C454.850839,51.726617 454.613272,52.1417919 454.533378,52.6221101 C454.28297,53.2331271 454.06057,54.4466848 454.68145,54.7498894 C454.849623,54.7173379 455.384927,54.593696 455.253564,54.8835557 C455.145284,55.1496453 455.204737,55.3982053 455.344938,55.6383221 C455.569275,56.4626925 455.739151,57.2998672 455.976769,58.1205015 C456.334971,58.255054 456.274261,58.7071563 456.412627,59.0083531 C456.461528,59.388965 456.740714,59.6522415 456.992708,59.9131866 C457.110504,60.3333111 456.743512,60.7087637 456.383139,60.8497184 C456.017674,61.035128 455.824935,60.538431 455.552771,60.3855325 C455.227786,60.144294 454.83165,59.9541701 454.425837,60.1102827 C453.856389,60.299182 453.256101,60.5858278 452.957616,61.143932 C452.0849,62.3531248 451.802879,63.9005412 452.038856,65.360195 C452.145679,66.2142743 452.314211,67.0589986 452.433099,67.9113238 C452.105506,67.9848662 452.338319,67.3226244 452.066956,67.3419376 C451.647394,67.38412 451.2286,67.4324728 450.811894,67.4976236 C451.075008,67.9597208 451.564569,68.9299698 451.251525,69.2627326 C450.918519,69.3424528 450.7399,69.2113349 450.716557,68.8681727 C450.618126,68.5203955 450.259804,68.8460942 450.028372,68.8723796 C449.760053,68.9637054 449.355482,68.9960325 449.656109,69.3337156 C449.968267,70.0087433 450.280428,70.6837674 450.59259,71.3587915 C450.349686,71.5200192 450.066427,71.6114296 449.823429,71.7724881 C449.267705,71.4691547 448.500119,72.6062871 447.837379,72.7592555 C447.409659,73.2138841 447.453564,72.0439061 447.03236,72.6436632 C445.451859,73.651417 443.701456,74.4604309 442.361394,75.7980167 C441.362072,76.906444 441.258967,78.47228 440.620418,79.7706253 C440.9807,81.4345092 441.106782,83.1364716 441.36212,84.8177234 C441.017273,84.7628286 440.671103,84.7119127 440.373633,84.5143422 C440.194021,84.6789162 439.924893,84.6061387 439.695736,84.6798245 C439.377447,84.6953427 439.21891,84.3199821 438.892127,84.3698279 C437.779361,84.2213568 436.656493,84.173015 435.538881,84.0730732 C435.357196,84.3517392 435.626749,84.6385836 435.744699,84.8911407 C436.597813,86.2358421 437.511039,87.5444471 438.5402,88.7606377 C439.496342,90.0141714 440.344155,91.3473812 441.278057,92.6186726 C442.055961,93.7018111 442.691224,94.8812398 443.16016,96.1299268 C444.465024,99.0276083 445.72009,101.948313 447.059721,104.829918 C447.088396,105.427862 446.812638,106.062487 446.737703,106.67521 C445.897244,110.834637 445.22594,115.025666 444.521199,119.209698 C444.826112,119.449759 444.8546,119.869369 445.016129,120.202562 C444.970345,120.561103 444.924562,120.919647 444.878778,121.278188 C444.074393,121.38783 443.222737,120.96173 442.466586,121.324787 C440.548589,122.536583 438.857716,124.084231 437.288925,125.718266 C436.845283,126.109483 436.549927,126.720747 436.06501,127.020612 C435.592558,127.188408 435.100833,127.199028 434.605503,127.180255 C431.922066,127.19089 429.241088,127.032747 426.557424,127.06994 C419.598069,127.005363 412.6383,126.988043 405.678674,127.014773 C405.645296,123.317866 405.608662,119.613874 405.699629,115.921023 C405.928116,115.439767 405.534415,114.958397 405.660002,114.468606 C405.796053,113.15129 406.186659,111.880215 406.459193,110.587901 C406.645493,109.949249 406.773069,109.299437 406.853007,108.639872 C407.038435,107.833127 407.223863,107.026378 407.409291,106.219629 C407.577479,105.967668 407.913668,106.041203 408.068596,105.778349 C408.215423,105.565209 408.247564,105.230983 408.198256,105.004292 C407.847926,104.745634 407.386623,104.674883 406.969785,104.564843 C406.718194,104.105574 406.428807,103.661355 406.353517,103.131872 C406.251016,102.46161 406.340902,101.768714 406.337954,101.089788 C406.465251,100.066207 406.550438,99.0192093 406.959962,98.0615551 C407.178647,97.4323612 407.500822,96.8456733 407.76642,96.2357448 C407.742319,95.864249 407.341202,95.6701683 407.0207,95.8246077 C406.269461,96.0659638 405.540788,96.385948 404.772162,96.5667095 C404.18554,96.4228938 403.68168,95.9858721 403.051669,96.0461321 C402.654009,95.9965584 402.043682,96.117674 401.880259,95.6388414 C401.813679,95.2825696 401.967871,94.8919444 401.808617,94.5627265 C401.852254,93.8410007 401.772865,93.1167155 401.860166,92.3953206 C401.875179,91.5619849 402.092861,90.7325141 401.972171,89.9016791 C401.975438,89.6015413 402.076833,89.2707164 401.804518,89.0567673 C401.585038,88.76533 401.365558,88.473889 401.146077,88.1824517 C401.51953,87.7163095 401.296186,87.0769369 401.301929,86.5305375 C401.266815,86.1333741 401.352456,85.7190891 401.465213,85.3441734 C401.694637,84.8755931 402.273821,84.7944681 402.684417,84.5419257 C403.503823,84.3051 404.382223,84.1181165 405.048814,83.5523966 C405.545099,83.1820554 406.009307,82.7706792 406.475305,82.3631274 C406.35485,81.9549799 405.886943,81.8135545 405.714844,81.4285924 C405.316792,80.879777 404.89624,80.3435785 404.515359,79.7876402 C404.29007,79.487359 403.987091,79.2154298 403.810702,78.897299 C403.892351,78.5853865 404.398636,78.8255806 404.544437,78.5375227 C405.009806,78.0351443 405.534994,77.5823727 405.953377,77.0402317 C406.048421,76.5985766 405.57224,76.40037 405.336226,76.1145663 C404.854452,75.6834393 404.42674,75.1786413 403.910482,74.7945029 C403.303425,74.5076769 402.603746,74.4380104 402.003733,74.1357141 C401.051627,73.5956801 400.107008,73.0378847 399.165946,72.4823583 C398.790577,72.291646 398.371736,72.1668788 397.956224,72.3052005 C397.502532,72.3506814 397.041208,72.258109 396.586003,72.3240835 C396.283288,72.2010336 396.29373,71.8865911 396.322274,71.607447 C396.392088,70.2478379 396.373284,68.8860407 396.393726,67.5252107 C396.265278,66.9243836 395.587671,66.842023 395.119661,66.6219254 C394.713145,66.455373 394.338201,66.225696 393.896519,66.1564635 C393.634387,66.1031904 393.361995,65.9156773 393.127934,66.1344401 C392.586623,66.4141652 392.045311,66.6938902 391.504,66.9736153 C390.978812,65.7668569 390.41565,64.5752049 389.894806,63.367836 C389.772076,63.0716771 389.650771,62.6944998 389.948105,62.4588914 C390.114037,62.1901284 390.419437,62.0778603 390.712695,62.2008256 C391.150802,62.2979653 391.66813,62.6309156 392.064965,62.2610047 C392.455736,62.0476329 392.515409,61.5505498 392.750869,61.2015664 C393.118099,60.4333705 393.653521,59.706478 393.638555,58.8141143 C393.734782,58.0339746 393.210612,57.4189861 392.72693,56.8853837 C392.423094,56.5402762 392.412999,56.0662094 392.657763,55.6934816 C392.964548,55.3313813 393.322669,55.0095254 393.591749,54.6178743 C393.667238,54.1854455 393.572707,53.7644569 393.381323,53.3749643 C393.2259,53.1416211 393.251466,52.5346308 392.84362,52.7456528 C392.607291,53.3425599 392.728083,54.2315736 391.786582,54.2332247 C391.161457,54.2853725 390.611919,54.3752238 390.201762,54.2546524 C389.507757,54.4541755 388.788445,54.7194561 388.257053,55.220165 C387.982544,55.619167 388.215111,56.1501144 388.117658,56.5998118 C388.030844,57.326866 387.815994,58.1733517 387.37711,58.7219538 C387.270309,58.5302707 387.403555,58.1877446 387.389318,57.9397363 C387.418308,57.6199985 387.496199,57.2900305 387.264881,57.0247425 C386.998258,56.6224235 386.575905,56.3769966 386.119821,56.2450771 C385.879357,56.0383979 385.738464,55.7489905 385.559292,55.5033504 C385.066493,55.1520466 384.292234,55.5744253 383.871909,54.9598303 C383.436124,54.4680646 382.79711,54.262496 382.328933,53.8180646 C382.014295,53.6386085 381.766385,54.0403759 381.711012,54.3031376 C381.480529,55.2607771 381.295658,56.2421279 381.063483,57.1904969 C380.887596,57.5055094 380.504463,57.4959337 380.226881,57.3330218 C379.708938,57.0938684 379.140413,57.0436107 378.592967,56.9069989 C378.250284,56.6960688 378.348221,56.2719729 378.526836,55.9827383 C378.745786,55.635042 378.843177,55.2002928 378.638483,54.8220933 C378.571353,54.5298029 378.475584,54.2676148 378.131971,54.2659821 C377.607618,54.5668517 376.56125,55.1130415 376.347172,54.0518528 C376.205499,53.6967504 376.539669,53.3901369 376.532695,53.045831 C376.304414,52.6107987 375.620143,53.1022408 375.427456,52.6192014 C375.33131,52.2717588 374.951227,52.3274552 374.676737,52.2852986 C374.393734,52.1628297 374.06812,52.0318552 373.780792,52.1957563 C373.4836,52.3543473 373.53242,52.6465384 373.688034,52.8963633 C373.869938,53.2577466 373.795263,53.6787757 373.705351,54.0493375 C373.516703,54.4126403 373.07489,54.3622171 372.734496,54.3876714 C372.357666,54.5823258 372.511364,55.105959 372.547815,55.4502685 C372.660806,55.9041948 372.611015,56.3393374 372.549515,56.7966725 C372.578776,56.991746 372.428664,57.6107648 372.306945,57.1716103 Z" id="horta-guinardo" sketch:type="MSShapeGroup"></path>
            </g>
        </g>
    </g>
</svg>