<?xml version="1.0" encoding="UTF-8" standalone="no"?>
<svg width="95px" height="100px" viewBox="0 0 95 100" version="1.1" xmlns="http://www.w3.org/2000/svg" xmlns:xlink="http://www.w3.org/1999/xlink" xmlns:sketch="http://www.bohemiancoding.com/sketch/ns">
    <!-- Generator: Sketch 3.2.2 (9983) - http://www.bohemiancoding.com/sketch -->
    <title>les-corts</title>
    <desc>Created with Sketch.</desc>
    <defs></defs>
    <g id="Page-1" stroke="none" stroke-width="1" fill="none" fill-rule="evenodd" sketch:type="MSPage">
        <g id="background" sketch:type="MSArtboardGroup" transform="translate(-263.000000, -192.000000)" fill="#FFFFFF">
            <g id="districtes" sketch:type="MSLayerGroup" transform="translate(149.000000, 192.000000)">
                <path d="M139.770739,6.70091935 C139.409749,6.70500075 139.017162,6.68867981 138.682426,6.81704817 C138.000769,7.31306382 137.196778,7.67570255 136.342719,7.70883363 C136.113575,7.78448392 135.846085,7.79265604 135.633056,7.88488818 C135.237828,8.32425347 134.835958,8.77380827 134.506159,9.25930361 C134.232225,9.74672782 134.71412,10.2007041 134.887014,10.6436243 C135.256532,11.2777553 135.258925,12.0643655 135.163098,12.7678942 C134.985511,13.4712131 134.761524,14.1663693 134.739058,14.8969815 C134.71849,15.1752108 134.642322,15.4830116 134.473433,15.7004345 C133.931091,16.1056437 133.490515,16.6163403 133.029362,17.1051669 C132.676666,17.3824131 132.534667,17.8513406 132.253601,18.184105 C131.935954,18.3778316 131.588129,18.5378448 131.398895,18.8750074 C130.978396,19.326505 130.739403,19.9077688 130.364463,20.3870488 C129.069429,21.6039344 128.374111,23.2936612 127.405445,24.7384527 C127.394397,25.1676984 127.315996,25.6054144 127.504434,26.0095753 C127.57212,26.4414813 128.053449,26.7111378 127.994839,27.1774142 C127.934711,27.8516136 128.007741,28.585203 128.250101,29.169565 C127.303651,28.9339482 126.519156,28.0613117 125.475306,28.2260958 C125.65692,29.5676504 125.274533,30.9180387 125.396436,32.2537974 C125.473489,32.4524207 125.442243,32.7488672 125.271774,32.8818108 C125.089013,33.0559971 125.16134,33.401793 125.275919,33.6068647 C125.467485,33.793733 125.156648,34.0496684 125.191963,34.2550102 C125.006322,34.3695083 125.202552,34.7044532 124.913328,34.8304174 C124.950845,35.077985 125.004978,35.2731233 124.84307,35.4661371 C124.780779,35.7061895 125.066726,35.9091225 125.026998,36.1203955 C124.715365,36.3723379 125.001676,36.7962302 124.883346,37.1260035 C124.900927,37.5204454 124.415402,37.5141323 124.150178,37.6474533 C123.902564,37.7611501 123.657048,37.8271094 123.396536,37.7358883 C122.577259,37.8276685 121.759452,38.0220381 120.932766,37.9572435 C120.640961,37.8911212 120.32375,37.8745393 120.131416,37.6144527 C119.805279,37.3270729 119.479137,37.0396884 119.152999,36.7523086 C117.914483,37.7664615 116.642702,38.7424607 115.425686,39.7812697 C114.875575,40.2231229 114.722149,40.9534323 114.424584,41.5616305 C114.257609,41.9896088 113.990738,42.3937138 114.02832,42.8705758 C113.913025,43.5908074 114.184683,44.2901662 114.220378,45.0069547 C114.402226,46.5434473 114.538877,48.0862623 114.741818,49.6195494 C114.853723,50.0746719 114.79132,50.6396846 115.212966,50.9462414 C115.730936,51.3571627 116.173198,51.8546692 116.659201,52.3021554 C116.853014,52.9207761 116.186526,53.4802351 116.447862,54.0996711 C116.535129,54.5081929 116.497139,54.9776516 116.816973,55.3004454 C117.165791,55.7506944 117.470582,56.2337018 117.619826,56.7881802 C117.914127,57.5434066 118.137791,58.3351605 118.13441,59.1510674 C118.029549,59.4270137 117.744225,59.6939026 117.908858,60.0007017 C118.036457,60.1545881 118.311664,60.3002325 118.303141,60.5549891 C118.172653,61.339116 117.839477,62.0741031 117.620716,62.8368306 C117.547644,63.1388168 117.432011,63.416077 117.183203,63.615949 C116.496713,64.3896395 115.75881,65.1135286 115.008376,65.8252806 C119.729093,70.5220192 124.12244,75.5303185 128.812079,80.2569315 C132.46655,80.684826 136.137796,80.9907445 139.770743,81.5847835 C139.209571,83.2817319 137.661968,84.3484677 136.434664,85.5509706 C135.996523,86.0019464 135.427333,86.4836306 135.197187,87.032313 C135.703112,87.6042725 136.209037,88.176232 136.714962,88.7481914 C141.329955,89.1658545 145.94877,89.5864994 150.52901,90.2987779 C154.556694,90.7857036 158.590058,91.4187722 162.460799,92.6618654 C167.410917,95.1587864 172.696079,96.9055269 177.973501,98.5687944 C179.12624,98.8236861 180.272586,99.1130274 181.448507,99.2429845 C182.390498,99.3625658 183.323896,99.5702698 184.276499,99.5677026 C186.101463,99.6399983 187.924568,99.7891977 189.752089,99.7553864 C190.146231,99.7985206 190.527803,99.9037144 190.911179,100 C193.936547,97.4751522 197.006219,94.982033 200.351586,92.8832067 C203.084419,90.9576162 205.889912,89.0788732 209,87.8047223 C208.964876,87.4436397 208.929752,87.0825617 208.894628,86.7214792 C207.202938,85.8853097 205.532693,85.0083263 203.861093,84.133542 C201.405065,82.8664636 198.942948,81.6110098 196.495878,80.3268231 C195.99355,79.4095522 195.485297,78.4958362 194.88406,77.6379645 C192.117615,73.3941912 189.282154,69.1955415 186.460532,64.988142 C186.059099,64.4518436 185.65766,63.9155404 185.256222,63.3792373 C180.350145,61.1117272 175.547983,58.6311224 170.679798,56.285707 C169.801044,55.5603503 168.63552,55.3337116 167.574824,54.9834568 C166.780906,54.7395514 165.963966,54.5555623 165.200465,54.2240419 C165.768302,52.91382 166.602547,51.5664555 166.300326,50.0759858 C166.149659,48.4774895 165.194185,47.1450947 164.54658,45.722625 C164.357468,45.193674 163.799892,43.9094267 164.763683,44.074509 C167.444669,43.9078985 170.158676,42.1839132 170.913035,39.529467 C171.311204,38.3305377 171.097238,37.0127633 170.476229,35.9292966 C169.965588,34.8998711 169.269422,33.9038329 169.158997,32.7334967 C168.833974,30.8052039 168.510122,28.8768086 168.26891,26.9359827 C168.217859,26.5623205 168.166807,26.1886582 168.115756,25.8150007 C167.516495,25.7493489 166.920428,25.5273413 166.317003,25.6652655 C165.56818,25.738153 164.822007,25.9139047 164.068402,25.8011817 C163.336827,25.7425885 162.622922,25.5470401 161.898812,25.4306131 C161.384602,25.078504 160.723518,24.882513 160.391607,24.3210553 C160.175833,24.0796005 160.328988,23.7187881 160.28312,23.422365 C160.299291,23.0876111 160.209074,22.7274184 160.435451,22.4429319 C160.674443,21.9411716 160.975694,21.4604472 161.176476,20.9457717 C161.248513,20.6533368 161.257243,20.3277661 161.366464,20.0547876 C161.687604,19.8214817 161.848898,19.4202933 161.723192,19.035957 C161.705625,18.7307607 161.754124,18.4030561 161.93394,18.1623701 C162.376553,18.0607638 162.350234,17.2169674 162.676245,16.8601106 C162.820093,16.6526955 162.867127,16.2268324 163.198406,16.2754271 C163.294594,15.9928881 163.382666,15.7099252 163.273365,15.4167867 C163.254361,15.1003386 163.058763,14.7697779 163.273356,14.4839543 C163.523274,14.0689329 163.442194,13.5566663 163.534069,13.0952074 C163.552853,12.8426546 163.654853,12.5681666 163.466139,12.3571499 C163.317687,11.9791034 163.177337,11.5454875 163.38815,11.1626468 C163.480859,10.9599047 163.633198,10.7893293 163.619893,10.5447017 C163.726014,10.3781518 163.762393,10.128236 163.655008,9.95065329 C163.644494,9.6419533 163.53598,9.37729608 163.619889,9.07707105 C163.53539,8.86948817 163.529976,8.64143307 163.444274,8.44809314 C163.388797,8.20551553 163.294421,7.98277184 163.093034,7.81911058 C163.047481,7.46029699 163.114689,7.0179219 162.847167,6.63102308 C162.607584,6.40748267 162.716417,6.08920352 162.77691,5.75743618 C162.526949,5.24543505 162.040221,4.88018255 161.858269,4.32741869 C161.354297,3.3126322 161.085688,2.18331497 160.423611,1.24973245 C159.875407,0.967827122 159.443172,0.148453863 159.025876,0 C158.672393,0.310722047 158.432417,0.754690556 158.064267,1.03962898 C157.335581,1.37795637 156.553938,1.61200777 155.827871,1.94312749 C155.5448,2.17928016 155.333307,2.53066243 155.00066,2.68701352 C154.600678,2.89049171 154.154042,2.73276152 153.73765,2.73106094 C153.283863,2.84089527 152.800212,2.85913111 152.372018,2.64704285 C151.663929,2.34487962 150.887672,2.29431408 150.132297,2.19320164 C149.606037,2.53191108 149.191477,3.03055914 148.687589,3.39446982 C148.034588,3.65240858 147.395028,3.96259017 146.725548,4.17316421 C146.245043,4.48747379 145.789486,4.84951149 145.226323,5.0056436 C144.834021,5.17142943 144.438952,5.3259821 144.006249,5.32806939 C143.563593,5.35141163 143.113,5.29191454 142.694337,5.47553551 C142.271951,5.60695094 141.82739,5.71852313 141.428377,5.89299357 C141.171729,6.15013096 140.937626,6.47467199 140.642098,6.66757395 C140.351646,6.67869064 140.06119,6.68980266 139.770739,6.70091935 L139.770739,6.70091935 Z" id="les-corts" sketch:type="MSShapeGroup"></path>
            </g>
        </g>
    </g>
</svg>