<?xml version="1.0" encoding="UTF-8" standalone="no"?>
<svg width="100px" height="100px" viewBox="0 0 100 100" version="1.1" xmlns="http://www.w3.org/2000/svg" xmlns:xlink="http://www.w3.org/1999/xlink" xmlns:sketch="http://www.bohemiancoding.com/sketch/ns">
    <!-- Generator: Sketch 3.2.2 (9983) - http://www.bohemiancoding.com/sketch -->
    <title>sant-andreu</title>
    <desc>Created with Sketch.</desc>
    <defs></defs>
    <g id="Page-1" stroke="none" stroke-width="1" fill="none" fill-rule="evenodd" sketch:type="MSPage">
        <g id="background" sketch:type="MSArtboardGroup" transform="translate(-545.000000, -395.000000)" fill="#FFFFFF">
            <g id="districtes" sketch:type="MSLayerGroup" transform="translate(149.000000, 192.000000)">
                <path d="M413.141463,256.245915 C412.950035,256.494054 412.565186,256.62989 412.614486,256.995989 C411.787869,257.881483 410.961251,258.766977 410.134634,259.652471 C409.525173,259.089918 408.915713,258.527364 408.306252,257.964815 C407.155423,263.32675 406.299729,268.746331 405.391922,274.153732 C405.738733,274.423977 405.766574,274.902273 405.950413,275.278822 C405.89875,275.685112 405.847086,276.091406 405.795423,276.497695 C405.050012,276.541824 404.312913,276.388132 403.572074,276.372872 C402.746507,276.57709 402.128999,277.240689 401.424676,277.685291 C399.463944,279.274363 397.570482,280.976357 396,282.967002 C398.759182,283.013631 401.518278,283.065906 404.276493,283.154518 C404.284209,288.696856 404.269872,294.239702 404.151996,299.780969 C406.163519,299.772706 408.174638,299.735844 410.185392,299.687207 C410.420978,299.717764 410.839648,299.556724 410.73365,299.94475 C410.771551,300.963172 410.808315,301.981632 410.847604,303 C412.814126,301.867222 414.760554,300.696349 416.736756,299.582343 C418.404944,298.744008 420.0309,297.821073 421.682262,296.94903 C423.644122,295.779924 425.56726,294.543379 427.564607,293.434719 C428.413848,292.961228 429.237568,292.444029 430.066963,291.936539 C430.231109,292.120851 430.322123,292.505084 430.624454,292.311655 C431.230956,292.113717 431.661826,291.604051 432.177003,291.24457 C433.232134,290.432324 434.254697,289.57327 435.330547,288.790797 C436.965146,287.755861 438.599744,286.720929 440.234343,285.685993 C440.230751,285.435455 440.054599,285.109026 440.378753,285.002625 C441.267982,284.271107 442.380043,283.91888 443.411062,283.444022 C444.239989,283.106714 445.039043,282.684548 445.876361,282.376933 C446.93725,282.106551 448.050281,281.950705 449.127141,282.241438 C450.921512,282.656624 452.600318,283.7549 453.502517,285.402481 C455.100674,288.193012 455.757392,291.394475 456.459641,294.503396 C456.830122,296.151461 457.111751,297.825223 457.623799,299.437189 C457.848105,299.324221 458.02849,299.129029 458.290251,299.074703 C458.909486,298.759876 459.199306,298.062557 459.684237,297.589036 C460.028631,297.231105 460.336942,296.810018 460.703283,296.490503 C461.17936,296.370342 461.693719,296.314158 462.145808,296.153915 C462.397092,295.955181 462.142303,295.632165 462.136009,295.370176 C462.027023,294.871516 461.918042,294.372855 461.809057,293.874195 C462.149867,293.540837 462.490673,293.207479 462.831483,292.87412 C462.625598,292.663515 462.99679,292.417572 463.057228,292.190657 C463.587474,291.21528 464.271839,290.337074 464.909686,289.432291 C465.245611,289.012533 465.506053,288.523441 465.931827,288.186211 C466.492711,288.45143 467.082557,288.64083 467.667702,288.842523 C467.665231,289.162538 468.034224,289.139974 468.246603,289.261847 C468.867318,289.539721 469.568075,289.663124 470.101408,290.106937 C470.587691,290.490321 471.045707,290.912495 471.546,291.281415 C472.341921,291.880038 473.222669,292.356696 474.053325,292.905377 C474.746745,291.352308 475.439347,289.798589 476.068204,288.217468 C476.437454,288.002104 476.527741,287.535034 476.763567,287.199279 C477.19955,286.441538 477.596161,285.647077 478.056541,284.912088 C478.315905,284.754316 478.568775,284.590089 478.693846,284.298839 C480.393599,281.645132 482.102704,278.996709 483.827297,276.359908 C484.424623,275.288352 485.005681,274.2084 485.503627,273.085556 C486.072017,271.892927 486.549413,270.659977 486.945156,269.398547 C487.346024,268.298025 487.604102,267.152434 487.878027,266.015339 C490.216444,257.14949 491.425827,247.62533 491.483822,237.936059 C491.525723,236.77572 491.473485,235.613115 491.380259,234.457034 C491.258333,233.483545 491.318941,232.496788 491.288327,231.517315 C491.306529,230.570716 491.232411,229.6263 491.195291,228.68101 C491.403326,228.570858 491.221177,228.184041 491.272386,227.962688 C491.210166,224.974382 491.112018,221.985825 491.111683,218.996893 C491.1189,218.568364 491.126116,218.13984 491.133336,217.71131 C490.979528,217.654435 490.980168,217.17438 491.133336,217.1175 C491.175399,216.35488 491.145149,215.584487 491.319329,214.836051 C491.810497,214.922688 491.482066,213.957445 491.673866,213.630925 C492.206976,209.920205 493.547823,206.232246 496,203.366304 C495.907369,203.099123 495.781149,202.796713 495.585456,203.185218 C494.461913,204.486594 493.295759,205.752 492.201297,207.077978 C491.484686,208.0012 490.733733,208.9067 490.17582,209.940141 C489.806372,210.554494 489.427938,211.164827 489.199908,211.850057 C489.014278,212.375624 488.747008,212.882931 488.753353,213.454014 C488.699428,213.762153 488.600821,214.06225 488.529496,214.36726 C488.172604,214.285961 487.782362,214.269243 487.445388,214.149375 C487.158849,213.783276 486.684557,213.683738 486.297088,213.460935 C486.066727,213.510319 485.691112,213.358764 485.558026,213.542717 C485.245148,214.470173 484.99267,215.422265 484.641382,216.334053 C484.195158,217.191248 483.85846,218.113379 483.263469,218.882367 C482.405263,220.118804 481.454368,221.288098 480.531826,222.47586 C479.170883,224.216499 477.446965,225.606099 475.777983,227.028553 C474.153308,228.383838 472.351841,229.492885 470.535548,230.562615 C469.316122,231.331545 468.109996,232.13039 466.882288,232.880697 C466.318878,232.986898 465.912591,233.432953 465.430409,233.714841 C463.657084,234.963249 461.774182,236.03991 459.940613,237.193898 C458.624191,238.016274 457.286741,238.813173 455.983406,239.651409 C455.687526,239.982054 455.422567,240.351653 454.987208,240.505679 C447.181511,244.888778 439.823373,250.025472 432.050328,254.464514 C431.603818,254.548017 431.142578,254.588867 430.761582,254.86204 C429.95303,255.239715 429.259693,255.805402 428.601048,256.401583 C428.268938,256.70293 428.120259,257.160137 427.865582,257.527281 C426.934237,260.268741 426.217196,263.077161 425.355245,265.840507 C425.055592,265.798837 424.755943,265.757166 424.45629,265.715492 C421.281944,262.028837 417.631528,258.677719 415.249849,254.370756 C414.731701,254.739896 414.191824,255.083435 413.783116,255.581503 C413.569233,255.802972 413.35535,256.024446 413.141463,256.245915 L413.141463,256.245915 Z" id="sant-andreu" sketch:type="MSShapeGroup"></path>
            </g>
        </g>
    </g>
</svg>