<?xml version="1.0" encoding="UTF-8" standalone="no"?>
<svg width="59px" height="100px" viewBox="0 0 59 100" version="1.1" xmlns="http://www.w3.org/2000/svg" xmlns:xlink="http://www.w3.org/1999/xlink" xmlns:sketch="http://www.bohemiancoding.com/sketch/ns">
    <!-- Generator: Sketch 3.2.2 (9983) - http://www.bohemiancoding.com/sketch -->
    <title>sarria-sant-gervasi</title>
    <desc>Created with Sketch.</desc>
    <defs></defs>
    <g id="Page-1" stroke="none" stroke-width="1" fill="none" fill-rule="evenodd" sketch:type="MSPage">
        <g id="background" sketch:type="MSArtboardGroup" transform="translate(-149.000000, -192.000000)" fill="#FFFFFF">
            <g id="districtes" sketch:type="MSLayerGroup" transform="translate(149.000000, 192.000000)">
                <path d="M17.2293207,32.8925285 C17.2638152,32.6227328 17.5811685,32.5352377 17.7527054,32.3537656 C18.11275,32.0070839 18.287531,32.3998781 18.5346184,32.6759076 C18.929763,33.1875598 19.729111,32.9508754 19.9150933,32.3825537 C20.0088748,31.8666735 20.0131392,31.356596 20.2081143,30.8764971 C20.3524842,30.70622 20.4920614,30.5330285 20.5799149,30.3216226 C20.7124043,30.1483545 20.64632,29.9323511 20.6242604,29.736915 C20.824096,29.5518903 21.1857551,29.5277481 21.2210964,29.2088097 C21.140212,29.0402847 20.9016911,28.9113547 20.7597336,28.7581688 C20.2743458,28.486358 21.0788843,28.037762 20.9016043,27.6020423 C20.8382095,26.9898079 21.5715806,26.7079308 21.9456973,26.3374429 C22.1624529,26.2416224 22.3766113,26.0871397 22.275195,25.8202081 C22.180363,25.3033035 22.017057,24.7857197 22.0529604,24.252517 C22.0233433,23.9384373 22.1926169,23.6543828 22.2651441,23.3557244 C22.4518771,23.346912 22.6428104,23.4553288 22.7602395,23.579624 C23.0008181,24.1403218 23.3809552,24.6655462 23.899221,25.0023332 C24.1207408,25.0695074 24.180388,25.3839304 24.4326698,25.3584523 C24.835883,25.5963738 25.2280739,25.8649641 25.6883768,25.9865669 C26.1633289,26.4005943 26.4596902,25.8302967 26.834169,25.6227288 C26.9889914,25.5035218 27.1650266,25.4141273 27.2726839,25.2448932 C27.4165388,25.2921607 27.6398146,25.5589934 27.7536318,25.3708378 C27.5264915,25.0066247 27.1278765,24.7351143 26.9241688,24.3387918 C26.562323,23.7134648 26.4050599,22.9424824 25.8770714,22.4267589 C25.6450876,22.1203218 25.295886,21.9350638 24.9810996,21.7184447 C24.8098457,21.5097144 24.7001646,21.2270444 24.3986958,21.1788962 C23.8457564,21.0404131 23.6401022,20.4342726 23.3569492,20.0079642 C23.0255163,19.6767206 23.0695487,19.4293038 23.4582542,19.231916 C23.7190478,19.0574072 23.9031403,18.7274585 24.2455256,18.7237622 C24.4141372,18.6152036 24.5408967,18.4364145 24.735653,18.3463744 C24.9687326,18.1652792 25.2626778,18.0768698 25.476195,17.8701378 C26.1284138,18.050358 26.805676,18.153696 27.4406486,18.3871543 C27.916108,18.5898094 28.3844927,18.8083317 28.8569872,19.017633 C28.8638129,18.5998813 28.81863,18.1553752 28.9027717,17.7316734 C28.9185752,17.226505 28.5818368,16.7729757 28.6068047,16.2626333 C28.6229495,15.9182747 28.5113955,15.6157856 28.3731536,15.305891 C28.1943516,14.5102776 28.8726907,13.871746 28.9163402,13.1004707 C29.0797952,12.512942 29.1447498,11.8811162 29.5145172,11.3731453 C29.7581211,11.0074638 29.9383773,10.5897532 30.2236202,10.2582745 C30.4944383,10.0277399 30.7366842,9.75147158 31.0978662,9.66558111 C31.5376108,9.50051906 31.9704788,9.29363408 32.4144294,9.15414905 C32.940911,9.17374043 33.4642183,9.21594773 33.9738422,9.35569211 C34.3219612,9.37980257 33.8097006,9.54345777 33.7094311,9.64029143 C33.1717292,9.95797406 32.6340254,10.2756567 32.0963236,10.5933393 C32.0305466,10.8153489 32.0088171,11.0187652 32.2716949,11.1020435 C32.6856436,11.3536752 33.1204053,11.5843814 33.5816097,11.7408345 C33.6863059,12.0462249 33.4231924,12.2830922 33.3151182,12.5488427 C33.1802354,12.7476803 33.1233098,13.0221182 32.9398473,13.1738432 C32.592743,13.3975992 32.1502956,13.5125054 31.8982873,13.8539048 C31.8035968,14.1555561 31.7147192,14.5477084 32.0183871,14.7646017 C32.2602747,14.9974686 32.5636616,15.1871561 32.6471563,15.5312348 C32.7372109,15.8384949 32.6410417,16.172235 32.7029823,16.4897478 C32.700653,16.8826277 32.9369314,17.2014747 33.1878042,17.4835476 C33.4358838,17.8153454 33.7412209,18.1190957 33.940236,18.4784203 C34.0234385,18.8798085 33.6148122,19.1612172 33.2986981,19.3254975 C33.0717067,19.5630477 33.3008086,19.9103039 33.4405594,20.1294307 C33.5946972,20.3083709 33.8350457,20.3355507 33.9051625,20.0711193 C34.024523,19.8620774 34.2320839,19.6240235 34.5010725,19.731319 C34.8422225,19.4588999 35.378142,19.5928545 35.5995637,19.946895 C35.6978227,20.1829376 35.5919591,20.5257737 35.3002677,20.5432903 C34.9947646,20.5870928 34.8483956,20.8986331 34.7394426,21.1469828 C34.8795215,21.5945283 35.9148197,21.5622361 35.6469476,22.2011726 C35.4183173,22.3241281 35.0399815,22.1777469 34.8976599,22.4542802 C34.819284,22.8167076 35.0171731,23.1749836 35.0660678,23.5340638 C35.126245,23.8811241 35.2703564,24.2187788 35.2649377,24.5731906 C35.1174125,24.7314236 35.1526595,24.9547262 35.3543397,25.0458522 C35.6147278,25.2804693 35.9056798,25.5153457 36.0055778,25.8618855 C36.1207964,26.0156871 36.2536611,26.1936926 36.1368318,26.3849212 C36.0993988,26.6483021 36.0069376,26.9478599 36.1985424,27.1760436 C36.491769,27.1803014 36.7894448,27.2174728 37.0678336,27.1253709 C37.2924334,27.0890802 37.5060506,26.9967918 37.7262671,26.9381464 C38.0357272,27.2997025 37.7490867,28.1738624 38.2278864,28.2634118 C38.5635365,28.354299 38.7758976,28.0622755 39.0559518,28.211588 C39.1527736,28.3979822 39.4122715,28.157428 39.591728,28.3017214 C39.7759619,28.3506215 39.9642113,28.5791129 40.1490545,28.5115413 C40.4017568,28.3947954 40.6339084,28.1137542 40.9373123,28.2115898 C41.1414387,28.1753812 41.335237,28.0950939 41.5239843,28.0339949 C41.8193271,28.0580942 42.120611,28.0092762 42.4130322,27.9890373 C42.9057851,27.8523716 43.3894697,27.6908005 43.8671075,27.4979131 C44.1846325,27.4656452 44.4848262,27.3520283 44.7510989,27.5748588 C44.9324717,27.7237868 45.1375354,27.6484048 45.2964413,27.8225087 C45.5244605,27.9567283 45.6445074,28.2024845 45.8175381,28.3935079 C45.7740074,28.685231 45.6650317,29.0049418 45.8317214,29.2845463 C45.9372342,29.5181632 45.863068,29.7920395 46.0297218,30.0027999 C46.1181996,30.3312858 46.2941386,30.650935 46.3182295,30.9882258 C46.3444591,31.2167191 46.1174867,31.2858599 45.9557253,31.3891046 C45.7526551,31.5306066 45.4716447,31.6042908 45.4190024,31.8766837 C45.3002247,32.0963927 45.2318035,32.3519687 45.102826,32.5570345 C45.4812995,32.7307634 45.6450997,33.2563479 45.8156426,33.6551668 C45.901627,33.8773536 46.1117096,34.1011861 46.0705365,34.3441061 C45.915003,34.714206 45.9852368,35.1262724 45.8530529,35.5052182 C45.7861047,35.7003204 45.6895979,35.8702038 45.8065875,36.0688884 C45.7776513,36.2726537 45.9806649,36.3618206 46.01558,36.5519185 C46.0619945,36.7386095 45.914192,37.0317917 46.1052913,37.1391506 C46.3541951,37.2385106 46.6161656,37.3187979 46.8821949,37.3361764 C47.2939351,37.5368892 47.7371841,37.6999193 48.129624,37.9237144 C48.2933639,38.0695807 48.3158534,38.237184 48.4538427,38.4044981 C48.8014675,38.9763388 49.3117552,39.4202646 49.8519618,39.8094053 C50.1978496,40.0664536 50.3767553,40.481386 50.6694746,40.7920512 C50.9409472,41.2307171 51.1878932,41.6899223 51.4744544,42.1159508 C51.6864986,42.2590537 51.8477544,42.500468 52.0981803,42.5692711 C52.3053961,42.4709578 52.6195864,42.5495883 52.624809,42.8124431 C52.6749654,42.9971431 52.6195638,43.2812293 52.880231,43.3058193 C53.3950868,43.5146187 53.234493,44.289316 53.5421311,44.6963558 C53.9010064,45.0154117 53.7286453,45.4604905 53.5296528,45.8103609 C53.3253981,46.1523723 53.2342176,46.5676069 53.3982064,46.9443865 C53.4470332,47.1595073 53.539583,47.3552364 53.5696905,47.5688776 C53.6707597,47.8127231 53.7708595,48.0661777 54.0219756,48.194798 C54.3213282,48.5542457 54.3971372,49.0416942 54.582267,49.4643045 C54.6978987,49.7929788 54.768157,50.1739155 55.1023548,50.3596679 C55.3224205,50.5377666 55.535287,50.7410076 55.7899376,50.846454 C56.0216743,50.8596418 55.9292886,51.1714862 55.7790625,51.2628716 C55.2478563,51.5283012 54.6571085,51.6822951 54.1019849,51.9022316 C53.562348,52.0691465 53.3598115,52.649654 52.9569397,52.9804367 C52.5925853,53.0857712 52.600571,53.5297342 52.4137757,53.7976305 C52.1524106,54.1823735 52.3008261,54.6671725 52.1096042,55.0761099 C52.0442328,55.2862135 51.8398819,55.5208809 51.6007726,55.3855455 C51.2950375,55.2123054 51.5070628,55.5778097 51.5182095,55.7374776 C51.623728,55.8466202 51.64386,56.1459019 51.7163853,56.328516 C51.9863453,57.2481018 52.2136403,58.1831741 52.5102958,59.0930687 C52.8188713,59.9180226 52.9748687,60.7913447 53.2127823,61.6381999 C53.3457734,62.1575319 53.4787645,62.676864 53.6117556,63.1961979 C53.7614913,63.4136977 53.7653842,63.0188418 53.7823853,62.8615305 C53.880963,62.5214222 53.646897,62.1673836 53.7815026,61.8387951 C53.9252802,61.6851129 54.2127524,61.8530912 54.3385952,61.6418383 C54.4688289,61.3898334 54.4026483,61.0942872 54.2895874,60.8470888 C54.2865659,60.6297103 54.6163881,60.5701375 54.7815425,60.6816311 C54.9563611,60.7572837 55.2234278,60.6767389 55.27329,60.928059 C55.4082842,61.100075 55.7657072,60.8738151 55.8184627,61.1320071 C55.7576329,61.3294453 55.6357281,61.5446483 55.774981,61.7452379 C55.7480101,62.1797131 56.2339693,61.9568005 56.4095877,62.1377708 C56.3295652,62.397726 55.9521101,62.4567912 55.8475026,62.7156176 C55.6556432,62.9746157 55.5744778,63.2759479 55.5214035,63.5880255 C55.6744418,63.7804539 55.7892982,64.0247192 55.9653975,64.1858388 C56.2525453,64.2876878 56.5790498,64.3370115 56.8423633,64.4706732 C57.0417386,64.8526827 57.1126702,65.295099 57.2614591,65.7008981 C57.3558271,66.0711434 57.5630486,66.4274733 57.4836315,66.8191479 C57.4610269,67.6912051 57.3519324,68.5550693 57.2754651,69.4234581 C57.0523365,69.5760171 56.7571201,69.6831521 56.5788763,69.8639955 C56.5381314,70.384921 56.4531014,70.9118638 56.4395122,71.4291005 C56.5380277,71.6778793 56.6705548,71.9196314 56.6098684,72.1940376 C56.599593,73.2949239 56.5895176,74.3964129 56.5587387,75.4961387 C56.5804569,75.8185811 56.5027505,76.1909386 56.784257,76.4297836 C57.4284581,77.3519051 58.1934304,78.1846787 58.860653,79.0875186 C59.1439041,79.4409919 58.9226842,79.9034361 58.8306002,80.2862554 C58.6540879,80.6483863 58.4441731,80.9950641 58.3837677,81.399559 C58.0373556,82.6545455 57.638139,83.9333439 57.72812,85.250493 C57.4413268,85.1729223 57.3759893,85.3334335 57.2404011,85.418421 C57.2241469,85.452092 57.2295033,85.7756073 57.3308856,85.821716 C57.3504386,86.1793558 57.3861138,85.8911852 57.5011532,85.8179508 C57.8001436,85.7591001 57.6714509,86.0821863 57.6784954,86.2564245 C57.6296309,86.6516498 57.7524843,87.1472129 57.3857554,87.4218672 C56.9111919,87.6013616 56.7931951,88.140912 56.5402249,88.5251829 C56.4234277,88.797796 56.2285091,89.0657501 55.9050977,89.0909745 C55.5694438,89.1321966 55.3206947,89.3675805 55.0404556,89.532609 C54.7970762,90.1179696 54.6801771,90.7480489 54.4887817,91.3518086 C54.4611846,91.6880023 54.3052437,91.9860712 54.0645821,92.221052 C53.8591241,92.4728405 53.4413089,92.6071926 53.4817294,92.9972252 C53.1440933,94.871639 53.0036107,96.7750834 52.6524871,98.646174 C52.5722138,99.128456 52.3389909,99.558248 52.140617,100 C48.9648735,98.4187853 45.775007,96.8655713 42.5923473,95.2980724 C42.4987922,95.5195502 42.3458596,95.638412 42.0972538,95.5919394 C41.9040025,95.4716352 41.7304758,95.3404626 41.7730201,95.0902582 C41.8082916,94.8382347 41.4721662,94.8371096 41.3173645,94.7134936 C39.7986948,93.9355721 38.2801308,93.1570237 36.7643656,92.373361 C36.2100512,91.354932 35.5147808,90.4205221 34.8896347,89.4444888 C34.0889495,88.2782494 33.329045,87.0835707 32.5011928,85.9362771 C32.3297559,85.6118625 32.0231023,85.452204 31.6848173,85.3296347 C29.900139,84.4929801 28.1447251,83.5971185 26.3673648,82.745595 C25.7234635,82.2770121 24.8816034,82.2277239 24.160654,81.9199583 C24.476621,81.2993313 24.7859792,80.6031936 24.534467,79.9018035 C24.3773266,79.185983 23.7356622,78.6228316 23.7787233,77.8617437 C25.1274385,77.8944016 26.5693505,76.8520226 26.5422947,75.4356927 C26.5001145,74.6122465 25.7739633,74.0057943 25.7327166,73.1805662 C25.5774321,72.304727 25.4507631,71.4246505 25.3347392,70.5429656 C25.0098284,70.4717015 24.6840933,70.4404467 24.3562195,70.5133397 C23.8355338,70.6135393 23.3044653,70.4886396 22.8006449,70.3712201 C22.5389253,70.2078802 22.1094069,70.0546103 22.1802744,69.6759407 C22.158726,69.4446821 22.1824641,69.2241895 22.3245122,69.031832 C22.4681427,68.7874324 22.5827709,68.5332855 22.6046419,68.2479716 C22.8067351,68.1264378 22.7766672,67.8993103 22.7602395,67.7022136 C22.8162145,67.4288056 23.0510727,67.3552353 23.1065988,67.0321865 C23.1508537,66.785684 23.3873716,66.74994 23.4109381,66.5267326 C23.3827866,66.3114065 23.2755536,66.0855403 23.4392293,65.8970096 C23.4439766,65.6049283 23.5934935,65.2905016 23.4109381,65.0293876 C23.3633411,64.8556065 23.390942,64.6781534 23.5099572,64.5396031 C23.5674185,64.3498727 23.5401118,64.1681748 23.5241047,63.9798494 C23.5121243,63.7509717 23.4643651,63.4837509 23.2977735,63.3081486 C23.314105,63.1611872 23.2867399,62.905723 23.1563177,62.7903727 C23.1598013,62.6182298 23.2248672,62.4247285 23.034362,62.2885143 C22.6287591,61.8098764 22.6054114,61.1069376 22.1713325,60.6517869 C21.7104506,60.420019 22.1933902,60.3611068 22.4027995,60.2107346 C22.7789645,59.9882008 23.0681039,59.6072193 23.5249704,59.5316955 C24.144247,59.3460979 24.7922806,59.0179404 25.0563183,58.3967071 C25.1631533,58.1869002 25.3087962,57.9541042 25.3056804,57.7209761 C25.148755,57.3889283 25.1256335,57.0053366 24.9031254,56.6987632 C24.7670694,56.5304303 24.691947,56.3349625 24.8284745,56.1407932 C25.0333478,55.7330798 25.4515666,55.4857302 25.6967114,55.1016197 C25.8867752,54.8902381 25.7748799,54.5487771 26.0274276,54.371824 C26.2034024,54.1809685 26.4118687,53.9969028 26.4191037,53.7182668 C26.4827682,53.3119621 26.6402066,52.9351247 26.8058778,52.560877 C26.1589023,51.7657805 26.27185,50.5262338 25.4006161,49.8901222 C24.9818484,49.6814721 24.6010795,50.0892956 24.1791394,50.0860752 C23.9487305,50.0897005 23.6935839,50.0822707 23.4766623,50.0079802 C23.1935922,49.837858 22.8524291,49.7325403 22.6991626,49.4132251 C22.032917,48.4987759 21.6146265,47.3297937 20.5676762,46.7534302 C19.8871435,45.6199942 18.9019471,44.6026792 18.6426926,43.2705716 C18.6666948,42.7267541 18.7006857,42.0937267 18.1957695,41.7314989 C18.0155378,41.5515978 17.8035672,41.4105305 17.5432074,41.3894241 C17.0455489,41.3065021 16.5380959,41.4041419 16.0350488,41.3887617 C15.3136091,41.4157064 14.5759358,41.3871683 13.8768178,41.5897021 C13.8526043,41.8739898 13.5477878,41.7006957 13.3629522,41.703765 C12.90565,41.6275023 12.4590929,41.4917209 12.0095972,41.3937883 C11.7609858,41.5684128 11.4665747,41.3318441 11.2174484,41.4357717 C10.9360003,41.7377234 10.7154028,42.1056588 10.3388022,42.3005333 C9.84160004,42.6154713 9.22390209,42.4906238 8.6655439,42.5726352 C8.2790734,42.6130774 7.86642037,42.6942548 7.51130591,42.4853099 C7.25551418,42.564586 6.95773648,42.5075396 6.81817051,42.2614047 C6.42614928,41.4988615 5.98005798,40.5476533 5.02515575,40.3958351 C4.65076935,40.4390816 4.95752667,40.0037164 4.88022578,39.7850896 C4.8979153,39.4836828 4.8515574,39.1864256 4.80949787,38.8888903 C4.60258195,38.759285 4.33357825,38.6780404 4.16411795,38.5192626 C4.09633232,38.2599734 4.02854858,38.0006843 3.96076295,37.7413952 C4.26131696,36.5025501 4.52450777,35.2298418 4.41342157,33.9490637 C4.54073181,33.7438206 4.66804205,33.5385776 4.79535229,33.3333346 C5.01886568,33.3329502 5.23424443,33.3517132 5.37544751,33.5451006 C5.75989803,33.7555736 6.06654784,34.086918 6.42838051,34.3197457 C6.68852342,34.384039 6.98633318,34.3391187 7.2142468,34.2009529 C7.52483474,33.5179227 7.79058496,32.7150026 8.55843356,32.4105582 C9.02759724,32.1544167 9.50866397,31.9820406 9.75864658,32.573857 C10.147437,33.2110582 10.9129864,32.9500637 11.5204845,33.056611 C12.1608738,33.160046 12.9594768,33.3863283 13.0908082,34.1188911 C13.1428469,34.4061231 12.9894956,34.7705377 13.3572204,34.4691551 C13.6388438,34.0504836 14.5873485,34.7487335 14.512111,34.2175906 C14.4700929,33.9228392 14.4280749,33.6280878 14.3860569,33.3333346 C15.3338108,33.1863992 16.2815648,33.0394639 17.2293207,32.8925285 L17.2293207,32.8925285 Z M16.7200779,29.1491755 C16.153106,29.2033354 15.5854551,29.2812867 15.0165443,29.2550081 C13.9293564,29.504272 12.8421684,29.753536 11.7549805,30.0027999 C11.2410244,29.8022215 10.7270663,29.601643 10.2131102,29.4010665 C10.4659653,29.2582659 10.7819078,29.1914816 10.9235277,28.9146424 C11.2302699,28.5661938 11.4601866,28.1669233 11.6842526,27.763785 C11.9635788,27.4813164 12.3896739,27.5067311 12.7490641,27.3922148 C12.9830075,27.3212735 13.2166963,27.27537 13.4488724,27.3792062 C13.9899768,27.5052646 14.5294176,27.6698527 15.0715518,27.7721141 C15.6157719,27.6747916 16.1769781,27.6403201 16.6824242,27.3995346 C16.9476897,27.2377042 16.7544592,27.6933847 16.7940687,27.8354708 C16.7694045,28.2733717 16.7447402,28.7112745 16.7200779,29.1491755 L16.7200779,29.1491755 Z M16.2815667,23.4116997 C15.4489068,23.0002341 14.6369165,22.5417939 13.7905976,22.161139 C13.5412073,22.0604337 13.2444744,22.0777637 13.0659761,21.8476396 C12.6306015,21.431403 12.2364508,20.959191 11.792255,20.5599187 C11.5487851,20.4796332 11.3053151,20.3993458 11.0618451,20.3190604 C10.8496614,20.8368326 10.6374776,21.3546048 10.4252939,21.872377 C9.78245265,22.3425533 9.12149939,22.7852868 8.42359598,23.1720393 C8.18551075,23.3125673 7.9474274,23.4530935 7.70934217,23.5936216 C6.05807935,22.8985492 4.42285573,22.1674903 2.78667965,21.4385678 C2.8955233,22.0357411 3.08005147,22.7014543 2.7300992,23.2577675 C2.81231144,23.5833426 2.55217042,23.4945563 2.33210666,23.4542783 C1.55473903,23.3421298 0.777369514,23.2299794 -5.32907052e-15,23.117829 C0.424367459,21.2100017 0.848734918,19.3021744 1.27310238,17.3943471 C1.92903867,17.3999055 2.5911481,17.3604932 3.21311613,17.1378754 C3.78196091,17.0009597 4.362224,16.9107274 4.92266441,16.7366365 C5.57311976,16.2188718 6.23469543,15.7058836 6.90845893,15.2242622 C7.06846809,14.9757595 7.07338698,14.653138 7.2912761,14.4322946 C7.4301197,14.1365412 7.51754694,13.8127704 7.76777097,13.5822377 C7.9686024,13.3569293 8.14681598,13.1198699 8.23706668,12.8306302 C8.37631202,12.4918803 8.81769944,12.4693334 8.97495116,12.1472119 C9.21973763,11.6929251 9.24704614,11.1151977 9.08890042,10.6288594 C8.9738893,10.3451725 8.63358998,9.95362105 8.91613572,9.65958055 C9.09771406,9.48316483 8.5175698,9.44348389 8.5984184,9.25511743 C8.76075499,8.84296143 8.90923079,8.38830146 8.84398382,7.94339614 C8.70944613,7.80596353 8.63596078,7.63228315 8.69822774,7.43209469 C8.68440468,7.16381406 8.80906121,7.06022603 9.07348928,7.1228662 C9.50329053,7.11101995 9.97003061,7.13277571 10.3084872,7.42832941 C11.1424938,7.88375064 12.0513267,8.18033056 12.946063,8.49449421 C13.4072165,8.56441304 13.8911991,8.75806731 14.346353,8.64715024 C14.7319823,8.46865411 14.9224837,8.04981465 15.2779848,7.8214911 C15.7505755,7.37020272 16.4375397,7.23223089 16.9188365,6.80029319 C17.7771716,5.9273983 18.4915989,4.92937419 19.2797775,3.99591768 C20.0399215,3.07692613 20.7722628,2.13257831 21.5497323,1.22938562 C21.9862423,0.819590477 22.4227523,0.409795145 22.8592623,5.32907052e-15 C23.4367397,0.519782835 23.9778686,1.08241183 24.5850233,1.56731026 C24.5877223,1.7795211 24.2698673,1.77865423 24.1694771,1.94804224 C23.7753642,2.29939145 23.303841,2.58912725 22.9933662,3.01705823 C22.8994414,3.26219268 22.6780254,3.46074274 22.6470786,3.7223623 C22.7552961,3.98716313 23.0876286,4.07692524 23.316093,4.22577122 C23.7720767,4.41714356 24.2280586,4.60851589 24.6840405,4.79988823 C24.2130813,5.4880308 23.7705452,6.20519475 23.2818871,6.87526661 C22.9579193,6.96916156 23.3646312,7.14792451 23.4521867,7.28961684 C23.8285138,7.69863449 24.3215383,7.98787044 24.6325487,8.45507821 C25.2621309,9.2335781 25.8928786,10.0111544 26.5229662,10.7892531 C25.5659497,11.372427 24.6204212,11.9787111 23.651413,12.5384835 C23.5493913,12.7653909 23.3446821,12.8845084 23.1112876,12.9466205 C22.6921974,13.0942723 22.3280788,13.3649823 21.8732757,13.4127853 C21.1029242,13.482038 20.94674,14.2739291 20.5739568,14.7944198 C20.4181253,15.0018459 20.7362651,15.2352165 20.800901,15.4547109 C21.095661,15.9893056 21.3904191,16.5239002 21.685179,17.0584949 C21.2136596,18.2106547 20.7421402,19.3628144 20.2706208,20.5149742 C18.9409361,21.4805494 17.6112514,22.4461245 16.2815667,23.4116997 L16.2815667,23.4116997 Z" id="sarria-sant-gervasi" sketch:type="MSShapeGroup"></path>
            </g>
        </g>
    </g>
</svg>