<?xml version="1.0" encoding="UTF-8" standalone="no"?>
<svg width="47px" height="100px" viewBox="0 0 47 100" version="1.1" xmlns="http://www.w3.org/2000/svg" xmlns:xlink="http://www.w3.org/1999/xlink" xmlns:sketch="http://www.bohemiancoding.com/sketch/ns">
    <!-- Generator: Sketch 3.2.2 (9983) - http://www.bohemiancoding.com/sketch -->
    <title>gracia</title>
    <desc>Created with Sketch.</desc>
    <defs></defs>
    <g id="Page-1" stroke="none" stroke-width="1" fill="none" fill-rule="evenodd" sketch:type="MSPage">
        <g id="background" sketch:type="MSArtboardGroup" transform="translate(-414.000000, -192.000000)" fill="#FFFFFF">
            <g id="districtes" sketch:type="MSLayerGroup" transform="translate(149.000000, 192.000000)">
                <path d="M292.971605,1.47097701 C292.365627,1.86122499 291.619561,1.9712853 290.915634,1.86928756 C290.625801,2.02667129 290.471654,2.08962035 290.343232,1.81169586 C289.661352,1.99029246 288.984465,2.22735156 288.381034,2.59325269 C288.06327,2.78948175 287.661265,3.00089885 287.652053,3.4262924 C287.699873,4.45084475 287.623918,5.50309008 287.182844,6.44704764 C287.038513,6.63365819 286.953585,7.36563284 286.681205,7.17312123 C286.713919,6.63417978 286.796926,6.08480207 286.798395,5.55234515 C286.650026,5.20376264 286.394917,4.92252736 286.119648,4.66985146 C285.8392,4.46649692 285.497686,4.37669029 285.194038,4.23106449 C284.938534,3.98999179 284.740849,3.70688232 284.584386,3.393799 C284.387264,3.26670738 284.200172,3.1052968 283.949394,3.16173481 C283.658052,3.12168716 283.325919,3.2963895 283.086329,3.07153035 C282.514366,2.76951981 282.065521,2.29293511 281.499997,1.98122207 C281.182415,1.80163533 280.894055,1.58229268 280.62377,1.33837332 C280.43894,1.25885266 280.222351,1.24444258 280.128552,1.45952851 C279.836974,1.72470052 279.76803,2.12376252 279.751824,2.49836717 C279.630853,3.20520816 279.444089,3.89672851 279.253651,4.58713936 C279.197789,4.84710871 279.187365,5.12782682 279.104536,5.3754813 C278.941336,5.64007426 278.595304,5.80755388 278.30417,5.64579409 C277.802296,5.45959904 277.303745,5.26140296 276.768251,5.1964913 C276.532384,5.13221173 276.252926,5.13467824 276.049805,5.00405041 C275.837826,4.85569288 275.742979,4.56629778 275.855736,4.32856239 C275.966802,3.90319536 276.322651,3.55266793 276.287695,3.09301286 C276.293806,2.77355109 276.101015,2.48007167 276.023121,2.17158543 C276.012435,1.91886089 275.720427,1.95954506 275.545032,1.87861433 C275.326774,1.76365636 275.167608,2.03558255 274.978918,2.11421032 C274.746775,2.30030812 274.438489,2.3281514 274.166957,2.43238137 C273.919263,2.30787562 273.665588,2.19052628 273.52431,1.93889356 C273.409765,2.04456896 273.81212,2.92712012 274.344597,2.69856121 C274.775185,2.51780751 275.252004,2.96594335 274.76603,3.22803886 C274.4547,3.50110548 274.084119,3.72021385 273.800778,4.01551443 C273.591097,4.40698682 273.332408,4.77958466 273.153898,5.18306251 C273.069999,5.55909933 272.9861,5.93514056 272.902202,6.31117737 C273.223942,6.77530575 273.545678,7.23943413 273.867418,7.7035625 C274.566348,7.91352092 275.265277,8.12348376 275.964211,8.33344218 C276.270339,8.71075645 276.314117,9.21229799 276.481262,9.65542124 C276.836973,10.8287378 277.223734,11.9981954 277.56003,13.173921 C277.47144,14.7244413 277.433458,16.2786879 277.25332,17.8224629 C277.178634,18.5934995 277.103948,19.364536 277.029262,20.1355726 C276.496736,20.4449915 275.964211,20.7544105 275.431681,21.0638294 C275.298559,22.3125513 275.165434,23.5612777 275.032308,24.8099996 C275.181866,25.2197454 275.370507,25.6234398 275.49616,26.0368898 C275.426449,27.3390395 275.456372,28.6448183 275.428495,29.948493 C275.40683,31.1878926 275.429533,32.4286536 275.346322,33.6657856 C275.326703,34.3491241 275.342275,35.0360252 275.387397,35.7177458 C275.413828,35.9405274 275.398669,36.2168562 275.617628,36.3410039 C276.537407,37.6423403 277.482965,38.926672 278.49369,40.1593881 C279.272861,41.1880778 280.244801,42.080243 280.876832,43.2131672 C281.409127,44.2205777 280.929166,45.3578823 280.481564,46.3001115 C280.24386,46.8344647 279.885034,47.3183517 279.791559,47.9054741 C279.378735,49.5574485 278.91408,51.1967543 278.514525,52.8516947 C278.396403,53.4721813 278.183235,54.0798623 278.202601,54.7181361 C278.156098,55.6885224 278.128239,56.6596337 278.094286,57.6305063 L277.228935,57.6305063 C277.208632,57.8380336 277.26109,58.1243212 276.960407,58.0283395 C276.697647,58.0926102 276.996374,58.251015 277.027398,58.3932858 C277.057343,58.5701143 276.917397,58.8824152 277.062278,58.9675939 C277.323014,58.9513052 277.122941,59.2965415 277.162387,59.4538678 C277.461189,59.5460569 277.352249,59.2041446 277.391132,59.0196116 C277.469639,58.8860178 277.788157,59.038106 277.963224,59.0194436 C278.087865,59.1634207 277.990657,59.42949 278.001303,59.6230802 C277.942069,60.370844 277.943463,61.1274926 277.881113,61.8714948 C277.754604,62.1973085 277.601744,62.5213409 277.332381,62.7515883 C276.930337,62.9455277 276.508039,63.1710985 276.303125,63.5881687 C275.779621,64.438748 275.352065,65.3519228 274.839651,66.204646 C274.597651,66.3819298 274.393691,66.6345526 274.074125,66.658232 C273.641949,66.7993359 273.154674,66.8164998 272.791921,67.1137718 C272.452235,67.3488418 272.072179,67.5498138 271.757131,67.8057032 C271.421709,68.4902661 271.296673,69.2495845 271.068328,69.9722678 C270.822916,70.9079329 270.496232,71.8245555 270.339462,72.7809915 C270.214408,73.0927178 270.129658,73.4279246 269.871815,73.6622829 C269.583318,74.0170405 269.307467,74.384418 268.924784,74.6451742 C268.655981,74.8517997 268.394185,75.0938272 268.204257,75.3667833 C267.951336,77.0585356 267.647808,78.7422608 267.427273,80.4388136 C267.302863,81.3287466 267.160902,82.2171855 267.076311,83.1110835 C266.629206,85.9913449 266.600197,89.0014384 265.401364,91.7092518 C265.387891,92.0245453 264.729318,92.5039589 265.128052,92.6625803 C267.597405,93.8924144 270.066762,95.122253 272.536116,96.3520871 C279.868273,96.5441522 287.202698,96.3458854 294.535881,96.3852303 C294.524791,97.5676526 294.513697,98.7500749 294.502607,99.9324972 C297.100294,99.9654061 299.698131,99.9648403 302.295928,99.9708076 C304.457466,99.9992035 306.619129,100.00239 308.780822,99.9988101 C308.872354,93.9520925 308.936239,87.9045086 308.880666,81.8571413 C308.883226,79.9261639 308.86591,77.9928172 308.921643,76.0636079 C308.980504,75.78876 309.101191,75.514743 308.985781,75.2375478 C308.920103,74.8817603 308.78502,74.5279884 308.903355,74.1661008 C309.386778,70.8420974 310.419354,67.6302848 311.01075,64.3272202 C311.166113,64.1623883 311.343748,64.0413613 311.576553,64.0288475 C311.807752,63.8363492 311.994902,63.5782628 311.972758,63.2649187 C312.009763,63.0513534 312.046982,62.8376996 311.80954,62.7359273 C311.372646,62.579768 310.93562,62.4240596 310.478237,62.338103 C310.287431,61.9487479 310.01837,61.5903126 309.878681,61.1807613 C309.780497,60.7845636 309.632106,60.3947488 309.679434,59.9800656 C309.680508,59.0614892 309.681577,58.1398585 309.826645,57.2304497 C309.902609,56.6210713 310.006868,56.0109988 310.146038,55.4141961 C310.400046,54.6966934 310.643244,53.9747792 310.992608,53.2961307 C311.131113,52.9617682 311.335543,52.631079 311.432795,52.2944223 C311.38106,52.0599005 311.25677,51.808418 310.985091,51.7947152 C310.638225,51.7072646 310.308967,51.9466885 309.97789,52.0263595 C309.256164,52.2555416 308.557905,52.5658623 307.815632,52.7240152 C307.268946,52.5899086 306.793046,52.2639225 306.251064,52.1255194 C305.720633,52.0746642 305.172407,52.1252321 304.656989,51.9796903 C304.347909,51.8778251 304.244782,51.5252113 304.296383,51.2300478 C304.277319,50.9421379 304.401046,50.6234143 304.221098,50.3702168 C304.298806,49.6294237 304.170912,48.8847364 304.261365,48.1437134 C304.294466,47.2033849 304.424459,46.2675739 304.480338,45.3308258 C304.406815,44.8908763 304.427175,44.4480536 304.454089,44.0050321 C304.110165,43.5519499 303.766245,43.0988722 303.422325,42.6457901 C303.576095,42.4627732 303.667094,42.2564925 303.663699,42.0152297 C303.710144,41.4723807 303.607958,40.9252529 303.592448,40.3806182 C303.630443,40.0209629 303.693889,39.6536163 303.771473,39.3013252 C303.914645,38.9209654 304.288945,38.7315877 304.641452,38.581082 C305.032509,38.3757737 305.434238,38.1984368 305.868412,38.1061416 C306.477083,37.9700857 307.04468,37.7168749 307.615933,37.4740827 C308.40859,36.9147462 309.152176,36.2915676 309.879134,35.6507213 C309.812054,35.391941 309.619672,35.2251421 309.417185,35.0657559 C309.051525,34.772303 308.857714,34.3262094 308.550591,33.9774854 C308.236067,33.5505845 307.886853,33.1433318 307.617725,32.6894982 C307.295399,32.3062873 306.973069,31.9230764 306.650743,31.5398611 C306.609441,31.2532331 306.990109,31.2905136 307.181697,31.2417536 C307.465939,31.2518142 307.593398,30.9563633 307.790165,30.7994658 C308.247321,30.3111585 308.753433,29.8636857 309.178039,29.3482292 C309.31215,29.1630243 309.272073,28.8393279 309.083015,28.6957089 C308.349489,28.0051698 307.629618,27.2961718 306.887613,26.6171033 C306.432258,26.3452567 305.890973,26.2749656 305.395861,26.0963778 C304.998516,25.9755497 304.588733,25.8833473 304.245581,25.6377527 C303.189614,25.0358666 302.12975,24.4386571 301.094725,23.8027614 C300.69047,23.6433621 300.277926,23.4035757 299.828736,23.5130083 C299.204453,23.6663519 298.559698,23.4881973 297.927543,23.5812352 C297.766721,23.4962908 297.53645,23.3766474 297.5756,23.1516733 C297.576119,22.2438868 297.654328,21.3341643 297.64019,20.4245257 C297.640305,19.5449228 297.672718,18.6596355 297.652646,17.7835822 C297.563414,17.4213941 297.268814,17.1682054 296.922334,17.0492338 C295.98819,16.6015179 295.008902,16.2434318 294.00336,15.9915648 C293.248951,16.3783385 292.494546,16.7651121 291.740137,17.1518902 C291.110049,15.73423 290.462783,14.3232753 289.821792,12.9112067 C289.740534,12.5862196 289.485128,12.2174187 289.71527,11.9031729 C289.881554,11.6867388 290.067013,11.4234896 290.342469,11.3533134 C290.89401,11.3625075 291.395303,11.6732835 291.938745,11.7053304 C292.24451,11.6521944 292.496769,11.4495913 292.720357,11.2540385 C293.206398,10.2575107 293.919297,9.36441275 294.189476,8.27033398 C294.527259,7.18607262 294.208838,5.97502024 293.443876,5.14599413 C293.158395,4.88930903 292.921978,4.62264297 292.923106,4.22516343 C292.884396,4.00121485 293.07948,3.80507862 293.138018,3.59270232 C293.509358,3.15716867 293.94413,2.77096965 294.26962,2.29977768 C294.297937,1.91255759 294.33986,1.51056053 294.150797,1.1532082 C294.001802,0.772901408 293.852803,0.392599035 293.703804,0.0122922424 C292.852688,-0.137789194 293.379742,1.12942273 292.9716,1.47097701 L292.971605,1.47097701 L292.971605,1.47097701 Z" id="gracia" sketch:type="MSShapeGroup"></path>
            </g>
        </g>
    </g>
</svg>