<?xml version="1.0" encoding="UTF-8" standalone="no"?>
<svg width="100px" height="81px" viewBox="0 0 100 81" version="1.1" xmlns="http://www.w3.org/2000/svg" xmlns:xlink="http://www.w3.org/1999/xlink" xmlns:sketch="http://www.bohemiancoding.com/sketch/ns">
    <!-- Generator: Sketch 3.2.2 (9983) - http://www.bohemiancoding.com/sketch -->
    <title>nou-barris</title>
    <desc>Created with Sketch.</desc>
    <defs></defs>
    <g id="Page-1" stroke="none" stroke-width="1" fill="none" fill-rule="evenodd" sketch:type="MSPage">
        <g id="background" sketch:type="MSArtboardGroup" transform="translate(-677.000000, -211.000000)" fill="#FFFFFF">
            <g id="districtes" sketch:type="MSLayerGroup" transform="translate(149.000000, 192.000000)">
                <path d="M548.131624,42.1069313 C548.080822,42.3693985 547.951079,42.6467487 548.127252,42.8883908 C548.419233,43.7554306 548.562022,44.6675295 548.82929,45.5436333 C549.138704,45.6404049 549.114749,45.9891863 549.214543,46.2444225 C549.296875,46.6013738 549.412431,46.95948 549.709853,47.1970502 C550.010925,47.4109155 549.88229,47.8709865 549.613143,48.0556184 C549.427292,48.2805259 549.017254,48.5026058 548.799646,48.2030557 C548.50014,47.9086394 548.155475,47.6009791 547.736439,47.5157973 C547.229208,47.4570549 546.776759,47.7523691 546.343358,47.9717108 C545.711027,48.4515526 545.378096,49.2211317 545.071395,49.9316293 C544.386629,51.7280838 544.995664,53.6426565 545.229328,55.4625737 C544.959072,55.4994516 545.055868,55.0710653 544.954179,54.8942717 C544.524756,54.8943276 544.032672,54.9844269 543.58237,55.0434599 C543.860931,55.5193603 544.311206,56.4500602 544.051715,56.8316663 C543.812596,56.8333204 543.520964,56.906484 543.529065,56.5714605 C543.50582,56.2943636 543.295765,56.1806488 543.064363,56.3434386 C542.799983,56.4316752 542.535603,56.5199081 542.271226,56.6081447 C542.634009,57.3904797 542.996796,58.1728183 543.359582,58.9551533 C543.112534,59.1179989 542.825248,59.2114176 542.578203,59.3742633 C542.313596,58.9808736 541.794982,59.7416234 541.451377,59.8379256 C541.078555,59.9787317 540.488612,60.6987403 540.189647,60.3249985 C540.019055,59.7838399 539.54686,60.4984355 539.221241,60.5729141 C537.815304,61.4336655 536.317591,62.1967512 535.107075,63.3320922 C533.999433,64.4573523 533.896008,66.1117005 533.229001,67.4770603 C533.583021,69.0914311 533.706146,70.7432088 533.953462,72.375156 C534.102729,72.7367194 533.680412,72.499261 533.484976,72.4995702 C533.272737,72.5276897 533.055519,72.1702839 532.895785,72.3654699 C532.686321,72.3546178 532.497832,72.4396207 532.281038,72.450499 C531.974329,72.4713204 531.824727,72.10551 531.518368,72.1420936 C530.373101,71.9877419 529.217211,71.9382311 528.066743,71.835808 C527.894365,72.0648582 528.101466,72.2838944 528.177889,72.5063766 C528.727699,73.3954859 529.324827,74.2553953 529.93298,75.1048213 C530.937698,76.3692259 531.964845,77.6182259 532.832574,78.9829635 C533.502888,79.9658267 534.132515,80.9807174 534.819349,81.9495247 C535.134341,82.3142696 535.228435,82.8311123 535.461474,83.2520999 C536.900747,86.4930869 538.320105,89.7432905 539.815437,92.9589483 C540.364112,93.4618803 540.912786,93.9648123 541.461461,94.467748 L543.693993,92.0927913 C543.647623,91.7645444 543.997335,91.6445895 544.168414,91.4222079 C544.670332,90.9347029 545.101861,90.3648474 545.708589,89.9999646 C546.084072,89.5335418 546.245435,90.0249771 546.445734,90.3918343 C548.581959,93.948644 551.661388,96.7746822 554.354804,99.8882336 C554.624565,99.9254878 554.894325,99.9627458 555.164086,100 C555.957505,97.5092349 556.579284,94.9593883 557.463814,92.5008182 C557.71587,92.1154643 557.878138,91.6543464 558.280232,91.3955898 C558.850257,90.8584323 559.506904,90.4283211 560.211477,90.0894157 C560.61033,89.8234131 561.154498,89.9677509 561.527592,89.6370526 C568.530082,85.6153699 575.199895,81.0378878 582.261458,77.1165903 C582.531762,76.813259 582.780764,76.484293 583.161381,76.3137134 C585.491449,74.8770602 587.836389,73.4635642 590.15714,72.0124117 C590.851067,71.5532832 591.531085,71.0642768 592.233622,70.6236451 C592.766997,70.5133241 593.169786,70.1114517 593.638086,69.855843 C594.882061,69.0615196 596.12775,68.2706386 597.404565,67.5302146 C599.684647,66.1507653 601.707492,64.3981255 603.641799,62.576245 C604.647038,61.5780666 605.450787,60.4029045 606.357519,59.3182217 C607.722697,57.6420053 608.768133,55.6972119 609.280867,53.5891632 C609.245872,53.1244987 609.58284,53.1428501 609.930839,53.171439 C610.251918,53.219795 610.53276,53.4443783 610.837884,53.5626046 C610.984974,53.7658338 611.18217,53.8727237 611.433776,53.874985 C611.631114,53.851377 612.006789,54.1055775 612.067168,53.8686145 C612.194649,53.4653711 612.259769,53.0495097 612.302697,52.6320389 C612.601086,51.8476736 612.858884,51.038836 613.332977,50.3383858 C613.704738,49.6973077 614.079149,49.0579992 614.551199,48.4842022 C615.898134,46.7800898 617.366623,45.174131 618.788296,43.5322443 C621.836588,40.0755107 624.946156,36.6735855 628,33.221803 C627.686329,32.9248236 627.292883,32.6954493 627.01683,32.3697878 C626.911306,32.1580981 626.716219,32.7616389 626.577207,32.327698 C626.290699,32.014051 625.960693,31.7255803 625.701459,31.3961524 C625.519508,30.7598764 625.311845,30.1187648 625.320961,29.4498168 C625.079066,28.9119478 624.719219,28.4227328 624.201049,28.1253621 C623.858734,27.8698615 623.446683,27.7143959 623.131904,27.4293713 C622.930641,27.2421874 622.709974,27.3056947 622.508536,27.2181585 C622.208536,27.0750538 622.024285,26.7963364 621.732318,26.6355583 C621.306998,26.3204137 620.763086,26.2162956 620.344431,25.8834664 C619.954571,25.6718996 619.619137,25.3896244 619.289302,25.0971303 C618.807005,24.7691367 618.324711,24.4411393 617.842413,24.1131457 C617.702738,23.5729595 617.56306,23.0327733 617.423382,22.4925833 C616.829242,22.8454814 616.455129,23.4525501 615.968225,23.9287001 C615.656753,24.2607283 615.332466,24.583376 615.144387,25.0056712 C614.929628,25.4566038 614.92747,25.980536 614.80509,26.4622517 C614.85578,26.7118661 615.120774,26.7504615 615.341746,26.7663169 C615.707509,26.8155931 616.076733,26.9432521 616.433332,26.7848099 C616.661772,26.7630162 616.913765,26.5916542 617.126593,26.6690275 C617.464624,26.7785512 616.979815,26.9811844 616.817164,27.014404 C616.579719,27.0482233 616.405336,27.312922 616.189085,27.3368616 C615.988541,27.4597297 615.838741,27.4435242 615.654717,27.5498514 C615.365958,27.5494789 615.014003,27.5169858 614.788473,27.6987528 C614.566105,28.3741533 614.377381,29.0675139 614.133995,29.7316897 C613.984292,30.0028892 613.718085,29.6740686 613.531903,29.6054165 C612.795033,29.1677613 612.032356,28.7631842 611.303307,28.3199037 C611.065866,28.2435102 610.90281,28.0306395 610.65837,27.9580236 C610.007653,27.6046859 609.389413,27.180949 608.716736,26.8752222 C606.933427,26.2179534 605.331804,24.9419069 603.376095,24.8443604 C602.468209,24.9559219 601.560622,25.0699832 600.651933,25.1748948 C599.659858,24.71482 598.53426,24.8039657 597.481588,24.620891 C597.196884,24.4173525 596.976012,24.7810096 596.73472,24.8301591 C596.438843,24.7839788 596.132628,24.9822383 595.846559,24.9592748 C595.580568,24.8602791 595.762006,24.3448372 595.412008,24.3518037 C595.190262,24.2997335 595.129079,23.9744669 594.88746,23.9148452 C594.656757,23.8697304 594.500439,23.6626081 594.284601,23.6236327 C594.028679,23.5720132 593.729601,23.6608273 593.535736,23.4425734 C592.92823,23.3655541 592.567088,22.7771534 592.002767,22.5837221 C591.359519,22.3064389 590.591625,22.3059509 590.093238,21.7417506 C589.893426,21.5588212 590.300536,21.2904604 590.376427,21.0687195 C590.713264,20.5561089 591.050101,20.0434945 591.386938,19.5308801 C591.117174,19.3539226 590.847413,19.1769613 590.577649,19 C589.945094,19.9592999 589.31254,20.9185962 588.679981,21.8778924 C588.999178,22.0586163 589.013533,22.1037983 588.64896,21.9805017 C588.291499,21.8645628 587.8989,21.8308813 587.591172,21.5984857 C587.140706,21.7393775 586.694773,21.9293777 586.241509,22.0399557 C584.853514,21.8529172 583.472711,21.6205663 582.094007,21.3749567 C581.316267,21.766845 580.563026,22.2153933 579.769811,22.5714878 C578.760029,22.9221208 577.747159,23.2637569 576.735945,23.61021 C576.476022,24.6444096 576.219936,25.6837576 576.145458,26.7509086 C576.101969,27.1068242 576.00623,27.4877859 575.714289,27.7209675 C574.704303,28.8051213 573.665606,29.8700407 572.67351,30.9661754 C572.260074,31.8856953 571.846639,32.8052114 571.433204,33.7247313 C569.894944,34.0160109 568.357198,34.3442579 566.818623,34.6124473 C566.463118,34.6089603 566.209242,34.336617 565.935604,34.1438413 C565.459758,33.1758202 565.019101,32.1863704 564.521407,31.2316564 C563.823733,30.2854066 563.088876,29.3614907 562.414439,28.4012818 C562.193158,27.8722867 561.851086,27.4042135 561.421546,27.0258149 C561.268521,26.7229232 561.013938,26.9330333 561.020159,27.1974265 C561.006909,27.5179469 560.960811,27.8293401 560.785327,28.1047866 C560.589333,28.6068059 559.999989,28.7893516 559.635085,29.0865844 C558.993656,29.2098511 558.379371,29.4848767 557.731096,29.6022908 C556.675916,29.8249929 555.623946,30.2037044 554.53107,30.0990386 C554.130364,30.1171517 553.70385,30.0243328 553.436188,29.7038049 C553.337997,29.5291422 553.027563,29.3997322 552.950031,29.6552366 C552.804563,30.0488535 553.18627,30.4729965 552.945455,30.8498267 C552.747075,31.3427597 552.219506,31.5565654 551.765952,31.7560617 C551.46184,31.8792987 551.164984,32.0698615 550.856403,32.1516122 C550.417692,32.0556229 550.07133,31.7261317 549.673035,31.527943 C549.31468,31.3134555 548.928243,31.1338305 548.678895,30.7839873 C548.500754,30.6048243 548.145529,30.6750858 548.127471,30.9591902 C548.356663,31.4225657 548.907968,31.9029179 548.893546,32.5335201 C548.997504,32.9917917 548.850454,33.5320115 549.190733,33.90474 C549.421637,34.1837853 549.518986,34.5392353 549.454939,34.8961903 C549.511972,35.5347128 548.898659,35.914311 548.690118,36.4621827 C548.628675,36.7332445 548.832457,37.0380846 548.674468,37.3092171 C548.560683,37.7208278 548.274844,38.0328915 548.020001,38.3628857 C547.879738,38.8715101 547.480316,39.2759643 547.40508,39.8099962 C547.236148,40.4515325 546.938276,41.1447963 547.237971,41.794428 C547.299209,42.0572975 547.391744,42.2600797 547.680005,42.087153 C547.82756,42.0731231 547.982319,42.1036865 548.131624,42.1069313 L548.131624,42.1069313 Z" id="nou-barris" sketch:type="MSShapeGroup"></path>
            </g>
        </g>
    </g>
</svg>