<?xml version="1.0" encoding="UTF-8" standalone="no"?>
<svg width="100px" height="87px" viewBox="0 0 100 87" version="1.1" xmlns="http://www.w3.org/2000/svg" xmlns:xlink="http://www.w3.org/1999/xlink" xmlns:sketch="http://www.bohemiancoding.com/sketch/ns">
    <!-- Generator: Sketch 3.2.2 (9983) - http://www.bohemiancoding.com/sketch -->
    <title>sant-marti</title>
    <desc>Created with Sketch.</desc>
    <defs></defs>
    <g id="Page-1" stroke="none" stroke-width="1" fill="none" fill-rule="evenodd" sketch:type="MSPage">
        <g id="background" sketch:type="MSArtboardGroup" transform="translate(-413.000000, -408.000000)" fill="#FFFFFF">
            <g id="districtes" sketch:type="MSLayerGroup" transform="translate(149.000000, 192.000000)">
                <path d="M358.684546,272.697691 C359.309604,271.013943 358.708674,269.214484 358.905412,267.47941 C359.059766,265.726804 359.708087,264.058846 359.907472,262.317735 C359.853395,259.341126 360.128209,256.320276 359.505854,253.384707 C359.445566,252.698991 358.945789,252.13501 358.80186,251.516915 C358.80186,250.918811 358.801864,250.320712 358.801864,249.722608 C359.605625,248.102239 360.872271,246.718225 361.430763,244.978765 C361.68479,244.048709 361.288932,243.147428 361.111462,242.249281 C361.063568,241.965685 360.964479,241.690144 361.042236,241.384651 C361.384656,240.895122 361.591129,240.327359 361.926863,239.834215 C361.765118,239.761051 361.912393,239.444524 361.749646,239.273091 C361.610919,238.977922 361.440443,238.687753 361.371958,238.367095 C360.821013,238.183443 360.189351,238.027338 359.861471,237.499163 C359.583113,237.259549 359.715034,236.852093 359.58999,236.53687 C359.509908,235.900472 359.170561,235.348116 358.947892,234.757989 C358.728962,234.608652 358.767747,234.283163 359.044968,234.236864 C359.285199,234.059683 359.556867,233.975944 359.853274,233.965737 C360.324133,233.769921 360.71021,233.360873 361.240407,233.342184 C361.605876,233.272544 361.987062,233.251238 362.326585,233.101607 C362.648467,233.074029 362.955976,232.989641 363.210627,232.781701 C363.486937,232.638307 363.703566,232.396373 364,232.293232 C363.254934,229.831461 362.901159,227.270645 362.235825,224.787261 C361.620775,222.507311 360.969429,220.139853 359.508685,218.241013 C358.358937,216.859773 356.565058,216.058342 354.785314,216.000021 C354.08061,215.997913 353.376113,216.151679 352.704513,216.350616 C351.416843,216.948234 350.095373,217.47119 348.812259,218.077318 C348.347179,218.268877 347.960324,218.58935 347.55765,218.883752 C347.559796,219.11704 347.731561,219.431915 347.412759,219.510838 C345.854593,220.503597 344.277673,221.469498 342.731217,222.479032 C341.501009,223.440594 340.271684,224.413212 339.041772,225.368855 C338.821253,225.510352 338.58904,225.622322 338.328151,225.661848 C338.176838,225.496948 338.073995,225.094938 337.831447,225.376327 C335.990352,226.531346 334.059096,227.532434 332.222716,228.695562 C331.139456,229.360003 330.060989,230.032906 328.925921,230.605928 C327.660424,231.280259 326.402774,231.972242 325.124294,232.619395 C323.392168,233.625322 321.661711,234.634168 319.928529,235.638261 C319.888463,234.601543 319.850928,233.564732 319.812189,232.527964 C318.075806,232.533417 316.340393,232.613647 314.603644,232.606938 C314.275792,232.609962 313.947936,232.612982 313.620084,232.616003 C313.73114,227.413444 313.744648,222.209403 313.73739,217.005843 C311.126123,216.929135 308.510842,216.85919 305.900646,216.839535 C305.473257,216.950746 305.048668,217.084747 304.601582,217.03519 C301.619683,217.031403 298.638855,216.915617 295.656734,216.907769 C294.460093,216.896807 293.263412,216.89034 292.066724,216.888474 C292.241234,220.146039 291.878628,223.408591 292.093193,226.665092 C291.978757,233.127746 292.054999,239.591804 291.979107,246.054809 C291.412422,246.138177 290.802318,246.190035 290.354968,246.590116 C290.147323,246.746597 289.899451,246.915238 289.63572,246.887492 C288.596357,246.355627 287.556998,245.823763 286.517636,245.291903 C286.225411,245.4973 285.933186,245.702701 285.640965,245.908097 C286.322596,246.7199 287.004231,247.531702 287.685866,248.343508 L288.824886,248.343508 C288.869396,248.560767 289.056371,248.824797 289.022742,249.007029 C289.062321,249.229742 289.247295,249.502861 289.342657,249.744912 C289.440948,250.057749 289.6569,250.283689 289.905507,250.485514 C286.622072,253.788763 283.344315,257.097704 280.063162,260.403234 C279.711042,260.599198 279.368353,260.80704 279.119072,261.132506 C278.266451,262.015375 277.451475,262.937309 276.512004,263.730035 C276.22842,263.961531 275.972161,264.266144 275.671505,264.451952 C271.780976,264.395024 267.890151,264.356648 264,264.276437 L264,270.408993 C266.04462,270.422886 268.089031,270.451641 270.133207,270.497012 C270.006112,276.706887 269.934176,282.918186 269.957973,289.129438 C271.944392,289.144672 273.929694,289.221303 275.915945,289.246807 C275.769913,289.520669 275.62388,289.794532 275.477847,290.068394 C275.622264,290.401332 275.861194,290.710546 275.946199,291.058395 C275.996838,294.043811 275.965922,297.029767 275.974357,300.01546 C276.419137,300.009314 276.863917,300.003172 277.308697,299.997025 C277.301377,297.977099 277.294056,295.957177 277.286735,293.937255 C279.318279,293.923206 281.349823,293.909156 283.381367,293.895107 C283.366456,295.488927 283.351546,297.082747 283.336639,298.676571 C281.841278,298.655961 280.345916,298.635355 278.850555,298.614749 C278.824632,299.093687 278.798709,299.572625 278.772789,300.051563 C280.316531,300.071481 281.860277,300.091395 283.404019,300.111308 C283.398552,300.504308 283.393084,300.897309 283.387621,301.290305 C280.776101,301.286483 278.164068,301.321294 275.552887,301.29248 C274.710114,301.267821 273.867341,301.243162 273.024568,301.218502 C273.034308,301.717323 273.044043,302.216147 273.053782,302.714968 C274.417698,302.804263 275.781529,302.939422 277.1455,303 C278.386296,302.902532 279.634071,302.846531 280.870518,302.723235 C282.636064,302.241221 284.401609,301.759208 286.167155,301.277195 C286.118323,300.504508 286.069487,299.731817 286.020652,298.95913 C285.816519,298.938399 285.424313,299.136288 285.348164,298.966791 C285.328946,297.722079 285.309725,296.477371 285.290508,295.232659 C285.443071,294.914978 285.5685,294.557784 285.958463,294.468461 C287.097892,293.989433 288.438299,293.877295 289.612955,294.293698 C291.0464,295.163755 292.947776,295.230319 294.081921,296.582405 L294.081921,298.548341 C294.270057,298.486761 294.669825,298.628356 294.724455,298.438604 C294.717216,297.406456 294.738883,296.370337 294.713715,295.34065 C294.683041,295.128904 294.426113,294.736248 294.817727,294.862146 C295.096926,294.836599 295.321378,294.863187 295.21788,295.202092 C295.209006,296.307725 295.200127,297.413358 295.191253,298.518995 C295.729994,298.618849 295.821061,298.310382 295.691267,297.798209 C295.692018,296.785591 295.522422,295.591766 296.274879,294.785383 C297.066433,294.059644 298.217229,294.124467 299.207191,293.991749 C301.963704,293.343142 304.808795,292.504184 307.659864,293.016381 C308.35736,293.146156 309.039314,293.365109 309.677304,293.677508 C309.796845,294.426694 309.708651,295.191837 309.735708,295.948132 L309.735708,298.166898 C309.92896,298.129398 310.363974,298.344947 310.259001,297.995292 C310.2405,296.712521 310.222003,295.429753 310.203502,294.146982 L310.992042,294.146982 C311.036578,294.613659 311.128553,295.081807 310.996103,295.542999 C310.809988,296.342544 310.89224,297.163896 310.875226,297.977181 C310.774139,298.216197 311.40246,298.305429 311.257401,297.995292 C311.266143,297.406961 311.274882,296.818627 311.283624,296.230296 C311.516074,296.007634 311.655779,295.733021 311.727987,295.420595 C311.811251,295.163489 311.853592,294.864478 311.722185,294.616465 C311.911828,294.293377 312.300813,294.158966 312.641773,294.053576 C315.635561,293.181297 318.86081,292.493926 321.949061,293.229105 C322.175086,293.340599 322.373522,293.474075 322.395882,293.747828 C322.503472,294.003479 322.74857,294.213597 322.670225,294.516356 C322.66186,295.087672 322.653496,295.658984 322.645131,296.230296 C322.799739,296.468329 323.035924,296.441999 323.20006,296.230296 C323.220827,295.280373 323.198086,294.32074 323.2458,293.376831 C323.427674,293.123825 323.356439,292.822702 323.346089,292.533151 C326.693913,291.490804 330.260534,289.756872 333.849527,290.417979 C334.11336,290.544022 334.377583,290.669616 334.505695,290.950923 C334.741132,291.131817 334.574437,291.389318 334.534461,291.622676 C334.377676,292.268494 334.220892,292.914312 334.064108,293.560135 C334.295176,293.737241 334.496104,293.839075 334.502992,293.456352 C334.726798,292.669362 334.950607,291.882368 335.174417,291.095378 C335.367732,290.943944 335.512359,290.667409 335.794128,290.743261 L341.147343,290.745186 C342.006296,290.763484 340.912213,295.362751 341.767007,295.251743 C341.890875,294.482839 341.503649,292.301686 342.663499,292.277559 C343.309203,292.341346 348.783587,294.77883 349.428076,294.801987 C350.043819,294.677121 349.928234,296.958746 350.534347,296.80955 C350.747685,296.720631 350.485499,293.683521 350.718137,293.880839 L351.992493,293.847878 C352.526113,293.753106 351.907629,296.304505 352.45001,296.162652 C353.2179,296.034797 357.369396,295.437985 358.153231,295.466611 L359.903968,293.918859 L358.722708,291.999385 C358.667618,290.97419 357.9077,289.351833 357.833019,289.05677 C357.749985,286.613621 357.69261,284.166485 357.593548,281.725824 C357.259964,280.511985 356.897189,279.302202 356.581744,278.085838 C356.521194,277.765337 356.952088,277.827672 357.15124,277.761574 C357.42218,277.674912 357.768015,277.732224 357.983612,277.539186 C358.339552,277.013347 358.026439,276.376363 358.017265,275.804851 C358.010508,274.881438 358.183998,273.964653 358.536095,273.111231 C358.585581,272.973385 358.635064,272.835538 358.684546,272.697691 L358.684546,272.697691 Z" id="sant-marti" sketch:type="MSShapeGroup"></path>
            </g>
        </g>
    </g>
</svg>