<?xml version="1.0" encoding="UTF-8" standalone="no"?>
<svg width="100px" height="81px" viewBox="0 0 100 81" version="1.1" xmlns="http://www.w3.org/2000/svg" xmlns:xlink="http://www.w3.org/1999/xlink" xmlns:sketch="http://www.bohemiancoding.com/sketch/ns">
    <!-- Generator: Sketch 3.2.2 (9983) - http://www.bohemiancoding.com/sketch -->
    <title>sants-montjuic</title>
    <desc>Created with Sketch.</desc>
    <defs></defs>
    <g id="Page-1" stroke="none" stroke-width="1" fill="none" fill-rule="evenodd" sketch:type="MSPage">
        <g id="background" sketch:type="MSArtboardGroup" transform="translate(-149.000000, -414.000000)" fill="#FFFFFF">
            <g id="districtes" sketch:type="MSLayerGroup" transform="translate(149.000000, 192.000000)">
                <path d="M50.284186,247.333613 L50.2173187,247.671394 L49.9331328,248.330068 L49.7098809,249.018512 C48.9682694,249.680865 48.390184,250.455788 47.5769131,250.954673 C47.207545,251.183975 46.8432053,251.453977 46.4226013,251.57277 C46.1041191,251.613847 45.8249171,251.426056 45.53661,251.319434 C45.2840211,252.250626 45.0861631,253.199521 44.7985915,254.119395 C44.6086149,254.610968 44.3389793,255.068525 44.2003189,255.5788 C44.0348491,255.969559 43.9836488,256.400985 43.8649282,256.808383 C44.1995499,256.825002 43.9356203,257.170341 43.9361619,257.370434 C43.8121165,257.914944 43.688071,258.459452 43.5640255,259.003963 C43.3521321,259.118261 43.4466824,259.459195 43.3673176,259.671507 C43.2237714,260.420404 43.2111603,261.184594 43.1461051,261.942659 C42.5635441,261.894208 42.0311313,261.610424 41.4712405,261.45559 C41.2494106,261.381503 41.0275807,261.307414 40.8057507,261.233325 C40.8781903,260.963098 40.9506298,260.69287 41.0230693,260.422643 C40.4324107,260.253752 39.8417498,260.084861 39.251089,259.915971 C39.2176531,260.169307 39.1842195,260.422643 39.1507858,260.675979 C38.8331663,260.608425 38.5155468,260.540871 38.1979273,260.473317 C38.2155802,260.204661 38.0751589,260.033282 37.8468741,259.915971 C37.3211347,259.9442 36.795471,259.971029 36.277535,259.853999 C35.7607557,259.776676 35.2453161,259.683717 34.7208293,259.696417 C34.8819438,259.420666 34.2754911,259.523919 34.3423494,259.300913 C34.5050954,259.103698 33.9581858,258.967156 33.9184221,259.1053 C33.6955312,259.015224 33.4726403,258.925147 33.2497494,258.835072 C33.3441682,258.615471 32.9180677,258.62758 33.1629334,258.313995 C33.1494262,258.135594 33.449083,257.741403 33.2014222,257.724352 C32.587866,257.655478 31.9743075,257.586605 31.3607491,257.517729 C31.2715927,257.793584 31.1824364,258.069439 31.09328,258.345291 C30.5009586,258.21836 29.8955802,258.136157 29.3443265,257.868546 C23.7039141,255.659877 18.0703802,253.4328 12.4256505,251.235678 C11.2503468,250.790056 10.0589593,250.378715 8.89369016,249.911703 C8.34389411,249.569271 7.6974169,249.433479 7.10416381,249.18393 C5.97102662,248.752779 4.80727983,248.400667 3.68486592,247.944117 C3.2484879,247.726899 2.80944878,247.517373 2.32454675,247.440406 C2.04005795,247.371028 1.75556893,247.30165 1.47108013,247.232274 C2.99779382,254.752001 2.4608871,261.661468 7.10542736e-15,268.951625 C0.19242639,269.998297 0.359783795,271.052952 0.567870276,272.094639 C1.27698562,273.62367 1.95600847,275.168315 2.6840633,276.687517 C3.79503198,278.683384 4.92017407,280.670938 6.09187138,282.631192 C6.70505092,283.599618 7.3356895,284.557298 8.04543874,285.457157 C8.66278411,286.263471 9.25176661,287.096052 9.88676717,287.886013 C12.2391599,290.046781 14.6102665,292.189158 16.9509597,294.361423 C19.3915794,297.24095 21.832199,300.120474 24.2728186,303 C25.2799511,302.837117 26.29922,302.709943 27.2988122,302.52487 C29.3973946,301.342047 31.4830092,300.133111 33.5897004,298.966619 C33.8585647,299.011652 33.8533112,298.419192 34.0434059,298.703359 C35.2512985,299.946323 36.4591933,301.189284 37.6670858,302.432248 C44.1047678,299.227566 50.5424497,296.022885 56.9801316,292.818203 C57.1776597,293.104543 57.3751879,293.390885 57.572716,293.677227 C56.569707,292.140321 55.566698,290.603418 54.5636889,289.066514 C54.6807067,288.616139 54.7977266,288.165764 54.9147443,287.715388 C54.4813909,287.471429 53.9846875,287.318018 53.6591977,286.919895 C53.1984622,286.494756 52.7625411,286.025247 52.2863926,285.627667 C51.5911291,285.434084 50.8958655,285.240502 50.2006041,285.046919 C49.1474447,285.452255 48.0942852,285.85759 47.0411235,286.262926 C46.9247767,286.052938 46.8429222,285.749527 46.5690473,285.966182 C41.5553373,287.770897 36.5416272,289.575609 31.5279172,291.380322 C31.1322859,290.395126 30.7366546,289.40993 30.3410232,288.424734 C31.5758544,288.007157 32.7377445,287.403744 33.9368997,286.895277 C34.170349,286.791457 34.403796,286.687636 34.6372452,286.583816 C34.2694752,285.440988 33.9017053,284.298163 33.5339353,283.155338 C34.3976375,282.840076 35.2613397,282.524811 36.1250419,282.209548 C37.2617855,283.279189 38.3985291,284.348831 39.5352726,285.418472 C43.3021287,282.344658 47.0689848,279.270847 50.835841,276.197035 C51.019726,276.405334 51.2036109,276.613635 51.3874959,276.821936 C51.1255991,277.030237 50.8637023,277.238537 50.6018055,277.446836 C50.7209296,277.740359 50.8786449,277.76358 51.0750319,277.515894 C51.253806,277.407543 51.464001,277.136588 51.6238606,277.126124 C51.6849773,277.330639 52.035199,277.582453 51.7455902,277.729588 C51.5649305,277.8943 51.3842707,278.059011 51.2036132,278.223724 C51.4277901,278.431858 51.4421064,278.610302 51.1477545,278.745076 C50.7930303,279.027297 50.4383061,279.309518 50.0835842,279.591742 C50.2372296,279.778719 50.5209585,279.975398 50.1802453,280.125508 C49.6576642,280.583745 49.1350854,281.041979 48.6125065,281.500214 C49.1695532,281.709107 49.6897449,282.050221 50.2960683,282.082319 C53.5407446,282.575104 56.7854186,283.067889 60.0300926,283.560674 C60.2428107,283.341278 60.2070122,282.980876 60.3125957,282.700696 C60.4357451,282.187941 60.5588968,281.675187 60.6820462,281.162432 C60.9355646,281.336155 61.1003255,281.290418 61.1564205,280.975995 C61.302015,280.647498 61.3562087,280.270313 61.5135831,279.954555 C61.893933,279.61969 62.2742829,279.284827 62.6546329,278.949961 C62.9053851,279.01189 63.1561374,279.073817 63.4068896,279.135743 C62.738217,282.220814 62.0695443,285.305883 61.4008716,288.390951 C61.6033903,288.386288 61.9461853,288.60594 62.0542072,288.450164 C62.7837134,285.390393 63.513222,282.330622 64.2427305,279.270851 C64.6885123,279.360926 65.1342941,279.451004 65.5800759,279.541079 C65.5078926,280.088352 65.2770869,280.628634 65.390525,281.184086 C65.5985869,283.181034 65.8066467,285.177983 66.0147086,287.174933 C65.7695287,287.265008 65.5243509,287.355084 65.2791709,287.445161 C65.2960794,287.775826 65.6521677,287.450052 65.8432387,287.44365 C69.3009162,286.290259 72.7714723,285.175483 76.2051355,283.950073 C77.0766879,283.645752 77.9482403,283.341431 78.8197928,283.03711 C78.7362087,281.472056 78.6526246,279.907004 78.5690405,278.341952 C79.3714477,278.037949 80.1738527,277.733948 80.9762599,277.429945 C81.5724953,279.220184 82.1687307,281.010426 82.7649638,282.800666 C83.8069788,282.429104 84.8489937,282.057544 85.8910086,281.685984 C85.515745,280.366896 85.1404837,279.047808 84.7652224,277.728719 C86.6542227,277.216422 88.5432253,276.704124 90.4322256,276.191825 C90.8520651,277.572835 91.2719046,278.953846 91.6917419,280.334859 C92.1996813,280.25988 92.6682358,280.004206 93.1596256,279.853885 C93.6154397,279.687052 94.0756358,279.532832 94.5336008,279.372188 C94.6794762,279.166036 94.4422401,278.922466 94.4146751,278.699372 C94.3015446,278.543288 94.3484766,278.056538 94.0867358,278.207466 C93.7920473,278.431667 93.7821687,278.059394 93.6948713,277.849257 C93.3280642,276.791844 92.9612549,275.73443 92.5944478,274.677019 C92.7807422,274.604448 93.2250485,274.621789 92.9049972,274.372766 C92.7257907,274.179759 93.1786649,274.061182 93.2769486,273.900851 C94.9384509,272.526963 96.599951,271.153075 98.2614533,269.779187 C98.3385802,270.084918 98.5419815,270.112364 98.8069542,270.004114 C99.0294818,269.945338 98.7471125,269.57204 98.7534671,269.378603 C98.6532687,269.156611 98.6558743,268.935729 98.7452134,268.75743 C98.6294773,268.253354 98.5061585,267.750949 98.3951878,267.245826 C98.9301259,267.116343 99.4650619,266.986863 100,266.857382 C99.7607957,266.412857 99.5883852,265.922122 99.3059178,265.507531 C97.6621598,263.664462 96.3725376,261.479403 94.4249014,259.929376 C93.0045893,258.240786 91.3498964,256.776391 89.8404146,255.17244 C86.6838404,251.975278 83.5139931,248.791525 80.3577399,245.594038 C79.4746863,243.308154 80.0173967,240.825942 79.8948557,238.447983 C79.9993826,236.60926 79.8185669,234.761346 80.0234036,232.927233 C81.703729,231.370054 83.4120986,229.844164 85.0885992,228.28274 C84.4597103,228.075705 83.7925154,228.209437 83.1453717,228.132697 C82.3014355,228.087669 81.454771,228.085 80.6223114,227.922359 C79.5639118,227.79284 78.5358788,227.497727 77.5350742,227.133101 C76.1252759,226.680897 74.7433011,226.145624 73.3671281,225.597774 C72.3394361,225.105847 71.3208025,224.570258 70.1959747,224.338727 C68.2671816,223.852432 66.2809741,223.691893 64.3237402,223.368704 C62.6525511,223.14596 60.9718401,223.009676 59.2945504,222.844454 C59.0493704,222.562969 58.8041904,222.281485 58.5590127,222 C58.4048391,222.249668 58.4954866,222.570011 58.4833635,222.848883 C58.5755066,223.380389 58.7407111,223.907051 58.7845114,224.442059 C58.7492612,224.66916 58.7802029,224.940307 58.6213686,225.047541 C58.5133201,225.27231 58.5629512,225.498214 58.4689737,225.710374 C58.3782883,225.955486 58.2114701,226.19237 58.3159569,226.460884 C58.4680442,227.326303 58.5929634,228.197367 58.54146,229.080037 C58.584021,229.354572 58.6272128,229.618152 58.6139843,229.931332 C58.6836845,230.216739 58.5711179,230.350053 58.5955356,230.52869 C58.7697137,231.093188 58.7387296,231.701327 58.9855902,232.24489 C59.1389681,232.495035 59.0937814,232.638558 59.1078704,232.889149 C59.2570022,233.006895 59.1565319,233.319249 59.2033256,233.522217 C59.0499678,233.864813 59.1137391,234.495266 59.0258666,234.987238 C58.9311736,235.723165 58.7501706,236.450341 58.4587096,237.132612 C58.5977489,237.307626 58.2375728,237.515391 58.2097337,237.725941 C57.9556582,238.410248 57.5307479,239.009042 57.1882337,239.649082 C57.0093259,240.481227 56.6860449,241.287079 56.1323148,241.938527 C55.686114,242.613734 55.3540757,243.386844 55.1775817,244.174138 C55.1516083,245.1978 55.1651088,246.248967 55.1589436,247.273085 C53.5307256,247.354715 51.9140757,247.358384 50.284186,247.333613 Z" id="sants-montjuic" sketch:type="MSShapeGroup"></path>
            </g>
        </g>
    </g>
</svg>